<?xml version="1.0" encoding="UTF-8"?>
<!-- Generator: visioncortex VTracer 0.6.12 -->
<svg version="1.1" xmlns="http://www.w3.org/2000/svg" width="1500" height="415">
<path d="M0 0 C9.9 0 19.8 0 30 0 C30.037 4.432 30.075 8.864 30.113 13.43 C30.151 16.987 30.193 20.545 30.236 24.102 C30.28 27.845 30.319 31.587 30.346 35.329 C30.373 38.941 30.413 42.552 30.463 46.164 C30.48 47.534 30.491 48.905 30.498 50.275 C30.547 60.019 31.468 68.295 36 77 C36.66 77 37.32 77 38 77 C38 77.66 38 78.32 38 79 C46.833 80.943 54.987 82.008 63 77 C68.129 67.914 68.465 58.448 68.512 48.242 C68.529 46.844 68.547 45.446 68.566 44.048 C68.613 40.401 68.643 36.755 68.67 33.109 C68.7 29.375 68.746 25.64 68.791 21.906 C68.878 14.604 68.938 7.303 69 0 C78.9 0 88.8 0 99 0 C99.16 15.87 99.16 15.87 99.195 22.729 C99.219 27.376 99.247 32.023 99.302 36.67 C99.346 40.424 99.369 44.178 99.38 47.933 C99.387 49.352 99.401 50.772 99.423 52.191 C99.656 67.921 96.746 82.901 86 95 C73.167 106.398 58.059 108.066 41.509 107.229 C33.947 106.539 26.982 103.849 20 101 C20 100.34 20 99.68 20 99 C19.618 98.866 19.618 98.866 17.688 98.188 C15.11 97.049 13.73 96.186 12 94 C12 93.34 12 92.68 12 92 C11.01 91.67 10.02 91.34 9 91 C7.5 89.137 7.5 89.137 6 86.688 C5.505 85.908 5.01 85.128 4.5 84.324 C-0.116 74.095 -0.413 63.761 -0.293 52.734 C-0.287 51.205 -0.283 49.675 -0.28 48.145 C-0.269 44.16 -0.239 40.175 -0.206 36.19 C-0.17 31.387 -0.156 26.583 -0.139 21.78 C-0.11 14.52 -0.052 7.26 0 0 Z " fill="#007643" transform="translate(1360,153)"/>
<path d="M0 0 C9.487 -0.062 18.975 -0.124 28.75 -0.188 C30.235 -0.201 30.235 -0.201 37.753 -0.27 C40.143 -0.279 42.532 -0.287 44.922 -0.293 C46.134 -0.308 47.347 -0.324 48.596 -0.339 C62.759 -0.344 74.603 2.719 85.062 12.625 C87.426 14.994 88.415 16.693 89 20 C89.66 20 90.32 20 91 20 C93.784 26.328 94.492 31.557 94.438 38.438 C94.457 39.328 94.477 40.218 94.498 41.135 C94.492 49.411 91.936 56.005 86.875 62.562 C86.377 63.224 85.88 63.885 85.367 64.566 C84.916 65.039 84.465 65.513 84 66 C83.34 66 82.68 66 82 66 C82 66.66 82 67.32 82 68 C76.185 71.478 70.535 74.185 64 76 C62.867 76.354 61.734 76.709 60.566 77.074 C54.627 78.543 48.576 78.211 42.5 78.125 C38.375 78.084 34.25 78.043 30 78 C30 86.91 30 95.82 30 105 C20.1 105 10.2 105 0 105 C0 70.35 0 35.7 0 0 Z M30 24 C30 33.9 30 43.8 30 54 C32.949 54.062 35.899 54.124 38.938 54.188 C39.847 54.215 40.757 54.242 41.695 54.27 C48.39 54.337 54.833 53.546 60.191 49.238 C63.762 44.224 64.73 41.155 64 35 C63.835 34.505 63.835 34.505 63 32 C62.34 32 61.68 32 61 32 C61 31.01 61 30.02 61 29 C58.645 25.729 55.816 24.975 52 24 C48.203 23.763 44.427 23.812 40.625 23.875 C37.119 23.916 33.612 23.958 30 24 Z " fill="#007643" transform="translate(1112,153)"/>
<path d="M0 0 C10.23 0 20.46 0 31 0 C33.901 6.382 36.784 12.754 39.562 19.188 C41.598 23.878 43.696 28.496 46.049 33.038 C47.049 35.101 47.884 37.185 48.711 39.324 C51.406 46.123 54.43 52.773 57.438 59.438 C58.003 60.696 58.569 61.954 59.135 63.213 C61.655 68.818 64.189 74.417 66.742 80.008 C68.464 83.79 70.116 87.59 71.688 91.438 C73.846 96.718 73.846 96.718 75.145 99.098 C76 101 76 101 76 105 C65.77 105 55.54 105 45 105 C40 95 40 95 37 85 C22.81 85 8.62 85 -6 85 C-7.65 89.29 -9.3 93.58 -11 98 C-11.99 100.31 -12.98 102.62 -14 105 C-24.56 105 -35.12 105 -46 105 C-45.34 103.35 -44.68 101.7 -44 100 C-43.656 99.135 -43.312 98.27 -42.957 97.379 C-40.676 91.765 -38.2 86.333 -35.438 80.938 C-32.852 75.861 -30.741 70.831 -28.895 65.449 C-27.818 62.501 -26.449 59.796 -24.996 57.02 C-23.883 54.763 -22.971 52.471 -22.062 50.125 C-20.365 45.771 -18.353 41.664 -16.223 37.508 C-14.608 34.196 -13.294 30.797 -11.965 27.363 C-11.077 25.189 -10.088 23.142 -9 21.062 C-6.939 17.078 -5.476 12.951 -4.027 8.711 C-2.894 5.72 -1.431 2.861 0 0 Z M15 32 C14.758 32.557 14.515 33.114 14.266 33.688 C12.616 37.444 10.945 41.137 9 44.75 C6.202 50.213 4.713 56.128 3 62 C11.25 62 19.5 62 28 62 C24.626 53.004 24.626 53.004 23.246 49.676 C22.949 48.957 22.652 48.238 22.346 47.498 C22.046 46.777 21.746 46.056 21.438 45.312 C20.832 43.85 20.226 42.388 19.621 40.926 C19.341 40.25 19.061 39.574 18.773 38.877 C17.832 36.592 16.911 34.298 16 32 C15.67 32 15.34 32 15 32 Z " fill="#007643" transform="translate(1291,153)"/>
<path d="M0 0 C-0.33 6.27 -0.66 12.54 -1 19 C-1.67 18.856 -1.67 18.856 -5.062 18.125 C-37.067 11.779 -64.079 18.246 -93 32 C-95.818 33.282 -98.641 34.554 -101.465 35.824 C-107.057 38.418 -112.496 41.297 -117.938 44.188 C-118.308 44.384 -118.308 44.384 -120.182 45.378 C-122.455 46.585 -124.728 47.792 -127 49 C-127.684 49.364 -128.369 49.727 -129.074 50.102 C-135.149 53.33 -141.22 56.563 -147.25 59.875 C-171.291 72.995 -171.291 72.995 -179.469 76.004 C-183.624 77.639 -187.628 79.603 -191.649 81.54 C-195.373 83.314 -199.072 84.753 -203 86 C-204.71 86.642 -206.418 87.288 -208.125 87.938 C-223.136 93.394 -238.208 95.347 -254.125 95.25 C-254.765 95.254 -254.765 95.254 -258.004 95.273 C-265.554 95.258 -272.632 94.677 -280 93 C-279.133 86.644 -278.07 80.324 -277 74 C-269.389 74.888 -269.389 74.888 -267.255 75.503 C-235.587 82.488 -202.324 68.417 -175 54 C-172.69 52.85 -170.377 51.704 -168.062 50.562 C-158.647 45.849 -149.308 40.999 -140.25 35.625 C-133.555 31.669 -126.67 28.096 -119.777 24.5 C-116.738 22.915 -113.709 21.314 -110.691 19.688 C-110.357 19.508 -110.357 19.508 -108.667 18.597 C-106.876 17.631 -105.086 16.661 -103.297 15.691 C-98.387 13.173 -93.313 11.097 -88.188 9.062 C-84.747 7.695 -81.31 6.32 -77.875 4.938 C-76.25 4.292 -74.625 3.646 -73 3 C-72.345 2.732 -71.69 2.464 -71.016 2.188 C-48.446 -6.766 -22.988 -7.663 0 0 Z " fill="#EE4A36" transform="translate(1080,207)"/>
<path d="M0 0 C1 1 1 1 1.133 3.949 C1.132 4.566 1.132 4.566 1.125 7.688 C1.128 8.908 1.13 10.129 1.133 11.387 C1.011 14.688 0.627 17.761 0 21 C-1.237 20.678 -2.475 20.355 -3.75 20.023 C-19.259 16.601 -35.966 18.364 -51 23 C-52.425 23.414 -53.851 23.827 -55.277 24.238 C-61.719 26.139 -68.035 28.2 -74.105 31.105 C-75.501 31.765 -76.926 32.363 -78.363 32.926 C-81.332 34.135 -84.144 35.544 -87 37 C-93.08 40.076 -99.216 43.022 -105.375 45.938 C-115.765 50.867 -126.148 55.817 -136.262 61.297 C-160.332 74.309 -185.483 85.106 -212 92 C-213.097 92.287 -214.194 92.575 -215.324 92.871 C-227.205 95.81 -238.925 96.165 -251.125 96.125 C-252.342 96.129 -253.559 96.133 -254.812 96.137 C-255.97 96.135 -257.128 96.134 -258.32 96.133 C-259.365 96.132 -260.409 96.131 -261.485 96.129 C-264 96 -264 96 -266 95 C-265.69 92.75 -265.377 90.5 -265.062 88.25 C-264.888 86.997 -264.714 85.744 -264.535 84.453 C-264.138 81.892 -263.653 79.497 -263 77 C-262.2 77.01 -261.4 77.021 -260.576 77.032 C-233.282 77.342 -209.457 74.249 -184 64 C-183.489 63.8 -183.489 63.8 -180.902 62.789 C-174.261 60.125 -167.883 57.023 -161.518 53.766 C-158.868 52.413 -156.244 51.097 -153.477 50 C-150.121 48.645 -146.987 46.914 -143.812 45.188 C-139.29 42.754 -134.765 40.329 -130.188 38 C-129.418 37.608 -128.648 37.216 -127.855 36.812 C-126 36 -126 36 -124 36 C-124 35.34 -124 34.68 -124 34 C-123.031 33.515 -122.061 33.031 -121.062 32.531 C-120.743 32.371 -120.743 32.371 -119.126 31.563 C-117.684 30.842 -116.242 30.122 -114.799 29.402 C-111.243 27.626 -107.689 25.845 -104.148 24.039 C-82.173 12.861 -60.567 2.506 -36 -1 C-34.84 -1.186 -33.68 -1.371 -32.484 -1.562 C-21.742 -2.911 -10.561 -2.376 0 0 Z " fill="#EE4A36" transform="translate(1070,236)"/>
<path d="M0 0 C0.502 0.002 0.502 0.002 3.043 0.014 C5.487 0.025 7.931 0.043 10.375 0.062 C10.045 6.663 9.715 13.262 9.375 20.062 C6.405 20.062 3.435 20.062 0.375 20.062 C-3.726 20.38 -7.795 20.915 -11.875 21.438 C-12.937 21.564 -13.999 21.69 -15.094 21.82 C-16.12 21.949 -17.146 22.078 -18.203 22.211 C-19.125 22.326 -20.047 22.441 -20.997 22.56 C-23.737 23.084 -26.065 23.971 -28.625 25.062 C-30.014 25.387 -31.41 25.68 -32.812 25.938 C-37.101 26.843 -40.94 28.308 -44.973 30.004 C-47.741 31.109 -50.528 31.994 -53.375 32.875 C-58.698 34.606 -63.589 36.927 -68.545 39.491 C-72.706 41.637 -76.9 43.429 -81.266 45.105 C-85.513 46.828 -89.554 48.963 -93.625 51.062 C-98.578 53.616 -103.483 56.06 -108.688 58.062 C-112.003 59.345 -115.045 60.787 -118.125 62.562 C-121.843 64.695 -125.568 66.304 -129.566 67.832 C-132.8 69.133 -135.963 70.551 -139.136 71.991 C-146.861 75.492 -154.511 78.566 -162.625 81.062 C-164.36 81.623 -166.094 82.186 -167.828 82.75 C-187.028 88.978 -187.028 88.978 -196.625 91.062 C-197.753 91.316 -198.881 91.57 -200.043 91.832 C-215.544 95.148 -230.792 96.423 -246.625 96.062 C-246.492 95.35 -246.359 94.637 -246.223 93.902 C-246.134 93.423 -246.134 93.423 -245.688 91 C-245.513 90.06 -245.339 89.121 -245.16 88.152 C-244.579 84.797 -244.092 81.435 -243.625 78.062 C-242.895 78.007 -242.165 77.952 -241.413 77.895 C-238.046 77.639 -234.679 77.382 -231.312 77.125 C-230.165 77.038 -229.017 76.951 -227.834 76.861 C-224.43 76.601 -221.028 76.333 -217.625 76.062 C-216.627 75.987 -215.629 75.912 -214.601 75.834 C-209.1 75.388 -203.853 74.65 -198.5 73.312 C-197.787 73.139 -197.074 72.966 -196.339 72.787 C-180.255 68.8 -164.876 63.54 -149.625 57.062 C-149.062 56.83 -149.062 56.83 -146.211 55.656 C-139.102 52.693 -132.369 49.367 -125.629 45.645 C-123.047 44.285 -120.536 43.157 -117.812 42.125 C-107.126 38.061 -97.059 32.329 -87 26.932 C-78.993 22.64 -70.996 18.449 -62.504 15.191 C-60.221 14.296 -57.969 13.365 -55.715 12.402 C-46.79 8.606 -38.021 5.522 -28.625 3.062 C-28.085 2.89 -28.085 2.89 -25.352 2.02 C-17.01 -0.123 -8.565 -0.074 0 0 Z " fill="#207C3F" transform="translate(1049.625,265.9375)"/>
<path d="M0 0 C-0.33 6.27 -0.66 12.54 -1 19 C-3.516 18.979 -6.033 18.959 -8.625 18.938 C-39.449 18.923 -65.836 28.983 -93 43 C-93.69 43.355 -94.38 43.709 -95.091 44.075 C-103.835 48.585 -112.374 53.351 -120.818 58.399 C-126.403 61.712 -132.108 64.645 -137.941 67.492 C-141.204 69.101 -144.368 70.834 -147.535 72.621 C-160.28 79.751 -172.97 86.071 -186.793 90.879 C-189.221 91.728 -191.61 92.616 -194 93.562 C-207.181 98.512 -219.464 100.182 -233.438 100.125 C-234.417 100.129 -235.396 100.133 -236.404 100.137 C-237.342 100.135 -238.28 100.134 -239.246 100.133 C-240.088 100.132 -240.931 100.131 -241.799 100.129 C-244 100 -244 100 -247 99 C-246.526 96.187 -246.046 93.374 -245.562 90.562 C-245.495 90.161 -245.495 90.161 -245.154 88.131 C-244.113 82.113 -244.113 82.113 -243 81 C-241.355 80.915 -239.706 80.892 -238.059 80.895 C-202.793 80.529 -202.793 80.529 -190 72 C-188.005 71.317 -186.004 70.654 -184 70 C-171.523 65.223 -159.679 59.462 -148 53 C-147.13 52.527 -146.26 52.054 -145.363 51.566 C-142.306 49.892 -139.286 48.17 -136.289 46.391 C-130.863 43.172 -125.412 40.149 -119.75 37.375 C-116.081 35.57 -112.494 33.788 -109.062 31.562 C-93.334 21.375 -75.573 13.381 -58 7 C-57.646 6.858 -57.646 6.858 -55.852 6.141 C-38.438 -0.825 -18.491 -3.082 0 0 Z " fill="#ED4A36" transform="translate(1065,172)"/>
<path d="M0 0 C0 6.93 0 13.86 0 21 C-3.353 22.172 -6.706 23.344 -10.059 24.516 C-13.679 25.835 -17.175 27.379 -20.686 28.965 C-24.51 30.675 -28.383 32.266 -32.25 33.875 C-37.61 36.116 -42.934 38.393 -48.188 40.875 C-62.54 47.584 -77.238 53.577 -92.23 58.695 C-95.855 59.95 -99.427 61.295 -103 62.688 C-110.091 65.439 -117.011 67.861 -124.461 69.41 C-127.455 70.106 -130.369 70.989 -133.312 71.875 C-142.421 74.515 -151.684 76.265 -161 78 C-161.411 78.077 -161.411 78.077 -163.49 78.466 C-165.825 78.901 -168.162 79.328 -170.5 79.75 C-171.2 79.878 -171.899 80.005 -172.62 80.137 C-175.83 80.702 -178.724 81 -182 81 C-181.369 75.219 -180.348 69.656 -179 64 C-170.676 61.99 -162.347 60.268 -153.922 58.746 C-117.759 51.867 -84.029 36.783 -51 21 C-41.42 16.427 -31.84 11.993 -22 8 C-19.916 7.126 -17.833 6.251 -15.75 5.375 C-2.83 0 -2.83 0 0 0 Z " fill="#207C3F" transform="translate(1002,309)"/>
<path d="M0 0 C9.9 0 19.8 0 30 0 C30 34.65 30 69.3 30 105 C20.1 105 10.2 105 0 105 C0 70.35 0 35.7 0 0 Z " fill="#007643" transform="translate(1211,153)"/>
<path d="M0 0 C-0.33 6.27 -0.66 12.54 -1 19 C-2.475 19.041 -2.475 19.041 -9.938 19.25 C-22.789 19.78 -34.946 22.507 -47 27 C-47.588 27.21 -47.588 27.21 -50.566 28.273 C-63.459 32.93 -75.664 38.591 -87.684 45.184 C-90.655 46.811 -93.642 48.402 -96.638 49.983 C-102.911 53.297 -109.073 56.753 -115.188 60.355 C-124.895 66.031 -134.93 71.008 -145 76 C-145 69.4 -145 62.8 -145 56 C-138.187 52.625 -138.187 52.625 -136.055 51.573 C-133.245 50.174 -130.616 48.744 -128 47 C-127.01 47 -126.02 47 -125 47 C-125 46.34 -125 45.68 -125 45 C-124.237 44.629 -123.474 44.257 -122.688 43.875 C-118.531 41.817 -114.519 39.498 -110.488 37.207 C-108 36 -108 36 -105 36 C-105 35.34 -105 34.68 -105 34 C-104.354 33.683 -103.708 33.366 -103.043 33.039 C-96.45 29.774 -89.935 26.388 -83.438 22.938 C-76.722 19.381 -69.983 16.007 -63 13 C-61.886 12.484 -60.773 11.969 -59.625 11.438 C-55.184 9.676 -50.666 8.319 -46.086 6.965 C-43 6 -43 6 -40.48 4.977 C-27.573 -0.105 -13.65 -0.148 0 0 Z " fill="#F6B52F" transform="translate(1057,140)"/>
<path d="M0 0 C0 32.01 0 64.02 0 97 C-9.9 97 -19.8 97 -30 97 C-30 70.93 -30 44.86 -30 18 C-28.515 17.175 -28.515 17.175 -21 13 C-17.795 10.911 -14.652 8.749 -11.504 6.574 C-9 5 -9 5 -7 5 C-7 4.34 -7 3.68 -7 3 C-1.125 0 -1.125 0 0 0 Z " fill="#007643" transform="translate(1496,161)"/>
<path d="M0 0 C0.073 6.459 0.025 12.6 -1 19 C-2.186 19.037 -3.372 19.075 -4.594 19.113 C-24.442 19.866 -43.466 23.679 -62 31 C-62.465 31.179 -62.465 31.179 -64.816 32.082 C-71.337 34.678 -77.464 37.769 -83.622 41.113 C-96.665 48.183 -96.665 48.183 -103 49 C-103 49.66 -103 50.32 -103 51 C-104.289 51.672 -105.581 52.337 -106.875 53 C-107.594 53.371 -108.314 53.743 -109.055 54.125 C-111 55 -111 55 -113 55 C-113 48.73 -113 42.46 -113 36 C-85.669 21.534 -85.669 21.534 -75 17 C-73.973 16.54 -72.945 16.08 -71.887 15.605 C-68.281 14.008 -64.655 12.48 -61 11 C-60.368 10.743 -59.736 10.486 -59.084 10.221 C-48.889 6.187 -38.472 3.952 -27.688 2.125 C-26.436 1.91 -25.185 1.694 -23.896 1.472 C-15.868 0.192 -8.125 -0.261 0 0 Z " fill="#F5B42F" transform="translate(1062,110)"/>
<path d="M0 0 C-0.33 5.94 -0.66 11.88 -1 18 C-2.787 18.242 -4.573 18.485 -6.414 18.734 C-30.421 22.075 -30.421 22.075 -42 26 C-43.938 26.62 -45.877 27.239 -47.816 27.855 C-49.961 28.548 -52.106 29.242 -54.25 29.938 C-55.257 30.261 -56.264 30.585 -57.302 30.919 C-63.041 32.823 -68.395 35.027 -73.743 37.854 C-76.878 39.446 -80.123 40.684 -83.398 41.953 C-87.278 43.514 -91.057 45.282 -94.848 47.047 C-97 48 -97 48 -98 48 C-98 41.73 -98 35.46 -98 29 C-90.54 25.034 -83.26 21.895 -75.281 19.183 C-71.103 17.759 -67.045 16.216 -63 14.438 C-55.545 11.26 -47.808 9.122 -40 7 C-39.324 6.816 -38.648 6.631 -37.951 6.441 C-30.34 4.389 -22.694 2.661 -14.938 1.25 C-14.247 1.122 -13.557 0.994 -12.846 0.863 C-8.401 0.094 -4.606 0 0 0 Z " fill="#2856A3" transform="translate(1056,52)"/>
<path d="M0 0 C0.113 6.111 -0.104 11.952 -1 18 C-1.454 18.055 -1.454 18.055 -3.754 18.332 C-26.358 21.184 -49.857 26.232 -70.145 37.07 C-72.4 38.2 -74.709 39.093 -77.062 40 C-80.202 41.219 -83.1 42.538 -86 44.25 C-89 46 -89 46 -91 46 C-91 39.73 -91 33.46 -91 27 C-83.029 22.894 -75.234 19.158 -66.812 16.051 C-64.697 15.26 -62.618 14.372 -60.562 13.438 C-56.014 11.602 -51.374 10.338 -46.648 9.035 C-43.393 8.112 -40.208 7.073 -37 6 C-30.973 4.127 -24.885 2.898 -18.688 1.75 C-17.756 1.575 -16.825 1.399 -15.865 1.219 C-10.488 0.264 -5.46 -0.179 0 0 Z " fill="#F5B52F" transform="translate(1055,81)"/>
<path d="M0 0 C0 5.94 0 11.88 0 18 C-10.837 21.559 -21.482 24.717 -32.637 27.062 C-36.955 27.972 -41.226 29.031 -45.5 30.125 C-51.305 31.601 -57.109 32.917 -63 34 C-63.96 34.186 -64.921 34.371 -65.91 34.562 C-70.047 35.347 -73.773 36 -78 36 C-77.745 33.727 -77.47 31.457 -77.188 29.188 C-77.112 28.555 -77.112 28.555 -76.73 25.355 C-76 22 -76 22 -74.906 20.164 C-71.926 18.344 -68.695 17.839 -65.312 17.188 C-63.682 16.848 -62.052 16.505 -60.422 16.16 C-59.547 15.976 -58.673 15.792 -57.771 15.602 C-41.443 12.055 -25.359 7.638 -9.574 2.158 C-8.775 1.883 -7.976 1.608 -7.152 1.324 C-6.429 1.071 -5.706 0.818 -4.961 0.557 C-3 0 -3 0 0 0 Z " fill="#207C3F" transform="translate(910,379)"/>
<path d="M0 0 C-0.33 5.28 -0.66 10.56 -1 16 C-5.511 17.601 -9.841 18.999 -14.543 19.902 C-33.092 23.508 -51.563 28.996 -68.832 36.703 C-72 38 -72 38 -75 38 C-75.054 35.771 -75.093 33.542 -75.125 31.312 C-75.137 30.692 -75.137 30.692 -75.195 27.551 C-75 24.003 -74.727 22.071 -73 19 C-70.321 17.594 -70.321 17.594 -66.91 16.5 C-65.66 16.09 -64.409 15.68 -63.121 15.258 C-61.768 14.838 -60.416 14.418 -59.062 14 C-57.688 13.56 -56.314 13.119 -54.94 12.677 C-44.72 9.419 -34.435 6.485 -24 4 C-22.76 3.694 -21.52 3.389 -20.242 3.074 C-13.524 1.46 -6.94 0 0 0 Z " fill="#2856A3" transform="translate(1044,26)"/>
<path d="M0 0 C3.96 0 7.92 0 12 0 C15.249 4.332 16.874 8.413 18.816 13.418 C20 16 20 16 22 17 C22.41 15.94 22.82 14.881 23.242 13.789 C23.786 12.401 24.33 11.013 24.875 9.625 C25.144 8.926 25.414 8.228 25.691 7.508 C27.773 2.227 27.773 2.227 30 0 C33.96 0 37.92 0 42 0 C42 12.21 42 24.42 42 37 C38.7 37 35.4 37 32 37 C31.67 31.72 31.34 26.44 31 21 C30.361 22.588 29.721 24.176 29.062 25.812 C28.703 26.706 28.343 27.599 27.973 28.52 C27.264 30.327 26.614 32.158 26 34 C23.03 34 20.06 34 17 34 C16.825 33.573 16.825 33.573 15.941 31.41 C15.486 30.305 15.031 29.201 14.562 28.062 C14.11 26.96 13.658 25.858 13.191 24.723 C12 22 12 22 11 21 C10.67 26.28 10.34 31.56 10 37 C6.7 37 3.4 37 0 37 C0 24.79 0 12.58 0 0 Z " fill="#363334" transform="translate(369,180)"/>
<path d="M0 0 C11 0 11 0 14.699 3.5 C15.733 4.974 16.729 6.476 17.688 8 C18.21 8.763 18.733 9.526 19.271 10.312 C20.548 12.186 21.779 14.09 23 16 C23.33 10.72 23.66 5.44 24 0 C27.63 0 31.26 0 35 0 C35 12.21 35 24.42 35 37 C25 37 25 37 22.375 34.625 C21 32 21 32 21 30 C20.34 30 19.68 30 19 30 C19 29.01 19 28.02 19 27 C18.01 26.67 17.02 26.34 16 26 C14.68 24.02 13.36 22.04 12 20 C11.67 25.61 11.34 31.22 11 37 C7.37 37 3.74 37 0 37 C0 24.79 0 12.58 0 0 Z " fill="#363334" transform="translate(192,238)"/>
<path d="M0 0 C10 0 10 0 12.625 2.375 C14 5 14 5 14 7 C14.99 7.33 15.98 7.66 17 8 C19.227 10.867 21.054 13.929 23 17 C23.33 11.39 23.66 5.78 24 0 C27.63 0 31.26 0 35 0 C35 12.21 35 24.42 35 37 C24 37 24 37 21.027 34.191 C20.291 33.006 19.594 31.794 18.938 30.562 C15.063 24.031 15.063 24.031 13 23 C13 22.01 13 21.02 13 20 C12.34 20 11.68 20 11 20 C11 25.61 11 31.22 11 37 C7.37 37 3.74 37 0 37 C0 24.79 0 12.58 0 0 Z " fill="#363334" transform="translate(17,128)"/>
<path d="M0 0 C11 0 11 0 14.918 3.719 C16.045 5.287 17.134 6.882 18.188 8.5 C18.758 9.311 19.328 10.122 19.916 10.957 C21.31 12.949 22.66 14.972 24 17 C24.33 11.39 24.66 5.78 25 0 C28.3 0 31.6 0 35 0 C35 12.21 35 24.42 35 37 C26 37 26 37 23.062 34.812 C21.163 32.222 19.959 30.05 19 27 C18.34 27 17.68 27 17 27 C17 26.01 17 25.02 17 24 C16.01 23.67 15.02 23.34 14 23 C13.34 22.01 12.68 21.02 12 20 C11.67 25.61 11.34 31.22 11 37 C7.37 37 3.74 37 0 37 C0 24.79 0 12.58 0 0 Z " fill="#363334" transform="translate(461,238)"/>
<path d="M0 0 C10 0 10 0 12 1 C12 1.99 12 2.98 12 4 C12.99 4.33 13.98 4.66 15 5 C19 10.371 19 10.371 19 13 C19.66 13 20.32 13 21 13 C21 13.99 21 14.98 21 16 C21.66 16 22.32 16 23 16 C23.33 16.66 23.66 17.32 24 18 C24.33 12.06 24.66 6.12 25 0 C28.3 0 31.6 0 35 0 C35 12.21 35 24.42 35 37 C25 37 25 37 22.449 35.059 C22.159 34.626 22.159 34.626 20.688 32.438 C20.052 31.531 19.416 30.625 18.762 29.691 C18.18 28.803 17.599 27.915 17 27 C16.004 25.622 15.005 24.246 14 22.875 C13.34 21.926 12.68 20.977 12 20 C11.67 25.61 11.34 31.22 11 37 C7.37 37 3.74 37 0 37 C0 24.79 0 12.58 0 0 Z " fill="#363334" transform="translate(286,180)"/>
<path d="M0 0 C10 0 10 0 12.625 2.375 C14 5 14 5 14 7 C14.99 7.33 15.98 7.66 17 8 C21 13.371 21 13.371 21 16 C21.66 16 22.32 16 23 16 C23 16.99 23 17.98 23 19 C23.66 19 24.32 19 25 19 C25 12.73 25 6.46 25 0 C28.3 0 31.6 0 35 0 C35 12.21 35 24.42 35 37 C25 37 25 37 22.16 34.699 C21.468 33.705 20.776 32.711 20.062 31.688 C19.352 30.701 18.642 29.715 17.91 28.699 C17.28 27.808 16.649 26.918 16 26 C15.421 25.45 14.842 24.899 14.246 24.332 C13 23 13 23 13 20 C12.34 20 11.68 20 11 20 C11 25.61 11 31.22 11 37 C7.37 37 3.74 37 0 37 C0 24.79 0 12.58 0 0 Z " fill="#363334" transform="translate(249,128)"/>
<path d="M0 0 C11 0 11 0 14.918 3.719 C16.045 5.287 17.134 6.882 18.188 8.5 C18.758 9.311 19.328 10.122 19.916 10.957 C21.31 12.949 22.66 14.972 24 17 C24.33 11.39 24.66 5.78 25 0 C28.3 0 31.6 0 35 0 C35 12.21 35 24.42 35 37 C26 37 26 37 23 35 C23 34.01 23 33.02 23 32 C22.34 32 21.68 32 21 32 C17 26.588 17 26.588 17 24 C16.01 23.67 15.02 23.34 14 23 C13.34 22.01 12.68 21.02 12 20 C11.67 25.61 11.34 31.22 11 37 C7.37 37 3.74 37 0 37 C0 24.79 0 12.58 0 0 Z " fill="#363334" transform="translate(297,296)"/>
<path d="M0 0 C1.928 -0.021 1.928 -0.021 11.688 -0.125 C12.291 -0.134 12.291 -0.134 15.346 -0.18 C16.308 -0.185 17.271 -0.19 18.262 -0.195 C18.751 -0.201 18.751 -0.201 21.229 -0.227 C24.947 0.078 27.812 1.067 30.75 3.375 C33.839 7.391 33.511 13.172 33 18 C31.562 20.812 31.562 20.812 30 23 C29.219 24.809 29.219 24.809 29 27 C30.215 29.578 30.215 29.578 31.938 32.25 C32.948 33.817 33.959 35.385 35 37 C30.38 37 25.76 37 21 37 C17 29.25 17 29.25 17 27 C15.35 27 13.7 27 12 27 C12 30.3 12 33.6 12 37 C8.04 37 4.08 37 0 37 C0 24.79 0 12.58 0 0 Z M12 9 C12 11.97 12 14.94 12 18 C17.373 18.44 17.373 18.44 20 18 C22 15.5 22 15.5 23 13 C22 11 22 11 20 9 C17.246 8.631 14.796 8.817 12 9 Z " fill="#363334" transform="translate(438,128)"/>
<path d="M0 0 C4.26 4.26 5.944 8.345 6.188 14.312 C5.968 19.486 4.84 23.734 1.125 27.543 C-3.966 32.008 -7.148 33.014 -13.938 33.062 C-14.641 33.083 -15.345 33.104 -16.07 33.125 C-21.66 33.167 -25.61 31.874 -30.062 28.312 C-31.188 26.812 -31.188 26.812 -31.188 23.812 C-31.847 23.812 -32.507 23.812 -33.188 23.812 C-35.031 18.283 -34.98 12.553 -34.188 6.812 C-31.573 2.096 -27.402 -2.213 -22.125 -3.812 C-13.911 -4.861 -7.009 -4.81 0 0 Z M-20.188 8 C-23.188 12.219 -23.188 12.219 -23.188 14.812 C-21.839 18.022 -20.653 20.347 -18.188 22.812 C-11.122 23.373 -11.122 23.373 -8.312 21.688 C-6.698 18.996 -5.786 16.924 -5.188 13.812 C-5.91 11.243 -6.945 9.203 -8.188 6.812 C-16.155 5.059 -16.155 5.059 -20.188 8 Z " fill="#363334" transform="translate(276.1875,184.1875)"/>
<path d="M0 0 C5.005 1.928 7.828 5.263 10.5 9.812 C12.662 14.849 13.001 19.889 11.316 25.125 C10.618 26.783 9.818 28.398 9 30 C8.34 30 7.68 30 7 30 C6.835 30.495 6.835 30.495 6 33 C1.055 37.592 -4.924 37.211 -11.328 37.168 C-14.471 36.97 -17.113 36.249 -20 35 C-20 34.34 -20 33.68 -20 33 C-20.577 32.794 -21.155 32.587 -21.75 32.375 C-24.961 30.413 -26.783 28.531 -28 25 C-28.996 12.992 -28.996 12.992 -27 9 C-26.34 9 -25.68 9 -25 9 C-25 8.01 -25 7.02 -25 6 C-17.403 -0.776 -9.819 -1.394 0 0 Z M-16 13 C-16.926 16.275 -17.158 18.381 -16.312 21.688 C-14.726 24.484 -13.945 25.641 -11 27 C-7.947 26.942 -5.003 26.533 -2 26 C1.229 19.183 1.229 19.183 0.602 15.945 C-1.331 11.335 -1.331 11.335 -4 10 C-6.059 9.797 -6.059 9.797 -8.438 9.75 C-8.829 9.737 -8.829 9.737 -10.809 9.672 C-13.533 10.08 -14.351 10.832 -16 13 Z " fill="#363334" transform="translate(601,238)"/>
<path d="M0 0 C4.26 4.26 5.944 8.345 6.188 14.312 C5.968 19.486 4.84 23.734 1.125 27.543 C-3.966 32.008 -7.148 33.014 -13.938 33.062 C-14.641 33.083 -15.345 33.104 -16.07 33.125 C-20.848 33.161 -24.026 32.393 -28.188 29.812 C-31.188 26.512 -31.188 26.512 -31.188 23.812 C-31.848 23.812 -32.507 23.812 -33.188 23.812 C-34.799 17.771 -35.559 10.682 -32.562 5 C-29.579 0.996 -26.773 -2.254 -21.938 -4 C-13.676 -4.563 -7.081 -4.86 0 0 Z M-20.188 8 C-23.188 12.219 -23.188 12.219 -23.188 14.812 C-21.839 18.022 -20.653 20.347 -18.188 22.812 C-10.883 23.276 -10.883 23.276 -7.188 20.812 C-5.826 17.655 -4.808 15.213 -5.734 11.797 C-6.467 10.096 -7.32 8.448 -8.188 6.812 C-16.155 5.059 -16.155 5.059 -20.188 8 Z " fill="#363334" transform="translate(359.1875,184.1875)"/>
<path d="M0 0 C0.342 -0.003 0.342 -0.003 2.075 -0.019 C6.724 0.096 9.981 1.088 13.938 3.5 C16.938 6.8 16.938 6.8 16.938 9.5 C17.597 9.5 18.258 9.5 18.938 9.5 C20.837 16.862 20.836 23.834 16.938 30.5 C13.49 34.271 10.206 37.255 4.938 37.5 C4.555 37.519 4.555 37.519 2.617 37.613 C-4.043 37.802 -8.643 37.161 -14.25 33.312 C-18.791 28.771 -20.22 24.634 -20.312 18.312 C-20.254 15.215 -19.912 12.481 -19.062 9.5 C-18.402 9.5 -17.743 9.5 -17.062 9.5 C-16.877 8.943 -16.691 8.386 -16.5 7.812 C-12.312 1.075 -7.547 0.038 0 0 Z M-6.5 12.75 C-8.991 17.134 -8.991 17.134 -9.062 19.5 C-7.503 23.399 -6.595 25.145 -3.062 27.5 C-0.801 27.477 -0.801 27.477 1.625 27.125 C2.433 27.014 3.241 26.903 4.074 26.789 C4.689 26.694 5.304 26.598 5.938 26.5 C9.167 19.683 9.167 19.683 8.539 16.445 C6.607 11.835 6.607 11.835 3.938 10.5 C-3.303 9.799 -3.303 9.799 -6.5 12.75 Z " fill="#363334" transform="translate(520.0625,237.5)"/>
<path d="M0 0 C3.486 -0.062 6.971 -0.124 10.562 -0.188 C11.105 -0.201 11.105 -0.201 13.85 -0.27 C21.217 -0.333 26.041 0.501 31.812 5.375 C35.286 9.543 36.28 13.115 36.25 18.5 C36.253 18.959 36.253 18.959 36.266 21.281 C35.698 27.089 33.312 30.19 29 34 C25.268 36.634 22.815 37.366 18.262 37.293 C17.3 37.285 16.338 37.278 15.346 37.27 C14.139 37.243 12.932 37.216 11.688 37.188 C9.759 37.157 9.759 37.157 0 37 C0 24.79 0 12.58 0 0 Z M11 9 C11 15.27 11 21.54 11 28 C20.488 28 20.488 28 23 26 C25.03 21.753 25.328 18.002 23.875 13.562 C21.918 10.888 21.154 9.876 18 9 C15.69 9 13.38 9 11 9 Z " fill="#363334" transform="translate(487,180)"/>
<path d="M0 0 C4.587 2.501 6.896 5.953 8.695 10.797 C10.399 17.325 9.856 22.58 6.52 28.469 C3.405 32.943 -0.454 35.008 -5.68 36.191 C-12.75 36.988 -18.689 36.185 -24.68 32.191 C-28.674 28.913 -30.427 25.905 -31.184 20.77 C-31.515 10.629 -31.515 10.629 -28.805 6.316 C-28.103 5.615 -27.402 4.914 -26.68 4.191 C-26.02 4.191 -25.36 4.191 -24.68 4.191 C-24.68 3.531 -24.68 2.871 -24.68 2.191 C-17.397 -2.074 -8.081 -2.438 0 0 Z M-17.68 11.191 C-19.462 15.297 -20.019 17.245 -18.492 21.504 C-16.68 24.191 -16.68 24.191 -13.68 26.191 C-10.805 26.629 -10.805 26.629 -7.68 26.191 C-5.061 24.096 -3.26 22.279 -1.68 19.316 C-1.68 15.818 -3.092 13.253 -4.68 10.191 C-9.283 7.122 -13.815 6.913 -17.68 11.191 Z " fill="#363334" transform="translate(367.6796875,296.80859375)"/>
<path d="M0 0 C0.681 -0.006 1.362 -0.013 2.063 -0.02 C6.687 0.097 9.905 1.175 13.875 3.5 C13.875 4.16 13.875 4.82 13.875 5.5 C14.865 5.83 15.855 6.16 16.875 6.5 C20.67 11.408 20.492 16.047 20.348 22.043 C19.521 28.086 16.817 31.257 12.082 34.867 C6.181 38.396 -0.612 38.601 -7.207 36.992 C-12.544 34.969 -15.813 31.446 -18.938 26.812 C-21.063 20.884 -21.111 15.032 -18.625 9.188 C-14.174 1.673 -8.467 0.077 0 0 Z M-5.938 12.25 C-9.125 16.986 -9.125 16.986 -9.125 19.5 C-7.565 23.399 -6.658 25.145 -3.125 27.5 C0.686 27.824 3.841 27.992 6.875 25.5 C8.806 21.218 9.096 19.208 7.688 14.688 C5.875 11.5 5.875 11.5 2.875 9.5 C-1.561 8.729 -2.658 9.043 -5.938 12.25 Z " fill="#363334" transform="translate(551.125,295.5)"/>
<path d="M0 0 C10.23 0 20.46 0 31 0 C31 2.97 31 5.94 31 9 C24.73 9 18.46 9 12 9 C12 10.98 12 12.96 12 15 C17.94 15 23.88 15 30 15 C30 17.64 30 20.28 30 23 C29 24 29 24 25.184 24.098 C23.602 24.091 22.019 24.079 20.438 24.062 C19.631 24.058 18.825 24.053 17.994 24.049 C15.996 24.037 13.998 24.019 12 24 C12 25.32 12 26.64 12 28 C12.285 27.997 12.285 27.997 13.728 27.984 C16.298 27.963 18.868 27.95 21.438 27.938 C21.886 27.933 21.886 27.933 24.158 27.912 C25.012 27.909 25.866 27.906 26.746 27.902 C27.141 27.9 27.141 27.9 29.142 27.886 C31 28 31 28 32 29 C32 31.64 32 34.28 32 37 C21.44 37 10.88 37 0 37 C0 24.79 0 12.58 0 0 Z " fill="#363334" transform="translate(156,238)"/>
<path d="M0 0 C10.23 0 20.46 0 31 0 C31 2.97 31 5.94 31 9 C24.73 9 18.46 9 12 9 C12 10.98 12 12.96 12 15 C17.61 15 23.22 15 29 15 C29 17.97 29 20.94 29 24 C23.39 24 17.78 24 12 24 C12 25.32 12 26.64 12 28 C12.285 27.997 12.285 27.997 13.728 27.984 C16.298 27.963 18.868 27.95 21.438 27.938 C21.886 27.933 21.886 27.933 24.158 27.912 C25.012 27.909 25.866 27.906 26.746 27.902 C27.141 27.9 27.141 27.9 29.142 27.886 C31 28 31 28 32 29 C32 31.64 32 34.28 32 37 C21.44 37 10.88 37 0 37 C0 24.79 0 12.58 0 0 Z " fill="#363334" transform="translate(91,128)"/>
<path d="M0 0 C9.9 0 19.8 0 30 0 C30 2.97 30 5.94 30 9 C23.73 9 17.46 9 11 9 C11 10.65 11 12.3 11 14 C16.94 14 22.88 14 29 14 C29 16.97 29 19.94 29 23 C28 24 28 24 24.184 24.098 C22.602 24.091 21.019 24.079 19.438 24.062 C18.631 24.058 17.825 24.053 16.994 24.049 C14.996 24.037 12.998 24.019 11 24 C11 25.32 11 26.64 11 28 C17.6 28 24.2 28 31 28 C31 30.97 31 33.94 31 37 C20.77 37 10.54 37 0 37 C0 24.79 0 12.58 0 0 Z " fill="#363334" transform="translate(233,296)"/>
<path d="M0 0 C10.23 0 20.46 0 31 0 C31 2.97 31 5.94 31 9 C24.4 9 17.8 9 11 9 C11 10.98 11 12.96 11 15 C16.94 15 22.88 15 29 15 C29 17.64 29 20.28 29 23 C28 24 28 24 24.184 24.098 C22.602 24.091 21.019 24.079 19.438 24.062 C18.631 24.058 17.825 24.053 16.994 24.049 C14.996 24.037 12.998 24.019 11 24 C11 25.32 11 26.64 11 28 C17.6 28 24.2 28 31 28 C31 30.97 31 33.94 31 37 C20.77 37 10.54 37 0 37 C0 24.79 0 12.58 0 0 Z " fill="#363334" transform="translate(172,180)"/>
<path d="M0 0 C9.9 0 19.8 0 30 0 C30 2.97 30 5.94 30 9 C23.73 9 17.46 9 11 9 C11 10.98 11 12.96 11 15 C16.94 15 22.88 15 29 15 C29 17.64 29 20.28 29 23 C28 24 28 24 24.184 24.098 C22.602 24.091 21.019 24.079 19.438 24.062 C18.631 24.058 17.825 24.053 16.994 24.049 C14.996 24.037 12.998 24.019 11 24 C11 25.32 11 26.64 11 28 C11.285 27.997 11.285 27.997 12.728 27.984 C15.298 27.963 17.868 27.95 20.438 27.938 C20.886 27.933 20.886 27.933 23.158 27.912 C24.012 27.909 24.866 27.906 25.746 27.902 C26.141 27.9 26.141 27.9 28.142 27.886 C30 28 30 28 31 29 C31 31.64 31 34.28 31 37 C20.77 37 10.54 37 0 37 C0 24.79 0 12.58 0 0 Z " fill="#363334" transform="translate(389,238)"/>
<path d="M0 0 C9.9 0 19.8 0 30 0 C30 2.97 30 5.94 30 9 C23.73 9 17.46 9 11 9 C11 10.98 11 12.96 11 15 C16.94 15 22.88 15 29 15 C29 17.64 29 20.28 29 23 C28 24 28 24 24.184 24.098 C22.602 24.091 21.019 24.079 19.438 24.062 C18.631 24.058 17.825 24.053 16.994 24.049 C14.996 24.037 12.998 24.019 11 24 C11 25.32 11 26.64 11 28 C11.285 27.997 11.285 27.997 12.728 27.984 C15.298 27.963 17.868 27.95 20.438 27.938 C20.886 27.933 20.886 27.933 23.158 27.912 C24.012 27.909 24.866 27.906 25.746 27.902 C26.141 27.9 26.141 27.9 28.142 27.886 C30 28 30 28 31 29 C31 31.64 31 34.28 31 37 C20.77 37 10.54 37 0 37 C0 24.79 0 12.58 0 0 Z " fill="#363334" transform="translate(214,128)"/>
<path d="M0 0 C2.545 1.339 4.214 2.723 5.629 5.238 C5.455 8.022 4.412 9.259 2.504 11.238 C1.844 11.238 1.184 11.238 0.504 11.238 C0.174 11.898 -0.156 12.558 -0.496 13.238 C-0.909 12.908 -0.909 12.908 -2.996 11.238 C-6.841 8.626 -9.953 8.925 -14.496 9.238 C-14.496 9.898 -14.496 10.558 -14.496 11.238 C-14.826 11.403 -14.826 11.403 -16.496 12.238 C-17.385 15.496 -17.631 17.697 -16.809 20.988 C-15.231 23.693 -14.517 24.422 -11.496 25.238 C-7.913 24.978 -5.048 24.477 -1.746 23.051 C-1.004 22.783 -0.261 22.515 0.504 22.238 C1.494 22.898 2.484 23.558 3.504 24.238 C3.504 25.228 3.504 26.218 3.504 27.238 C4.164 27.238 4.824 27.238 5.504 27.238 C5.504 28.558 5.504 29.878 5.504 31.238 C1.544 33.218 -2.416 35.198 -6.496 37.238 C-5.836 38.228 -5.176 39.218 -4.496 40.238 C-4.246 43.301 -4.246 43.301 -4.496 46.238 C-6.496 48.238 -6.496 48.238 -8.879 48.434 C-9.331 48.422 -9.331 48.422 -11.621 48.363 C-12.531 48.345 -13.441 48.327 -14.379 48.309 C-15.078 48.285 -15.776 48.262 -16.496 48.238 C-16.661 47.743 -16.661 47.743 -17.496 45.238 C-15.444 42.99 -14.489 42.236 -11.496 41.238 C-12.816 40.578 -14.136 39.918 -15.496 39.238 C-15.166 38.578 -14.836 37.918 -14.496 37.238 C-15.672 36.743 -16.847 36.248 -18.059 35.738 C-23.049 33.15 -26.957 30.37 -29.496 25.238 C-30.533 18.66 -30.861 12.701 -27.578 6.777 C-27.235 6.358 -27.235 6.358 -25.496 4.238 C-24.836 4.238 -24.176 4.238 -23.496 4.238 C-23.496 3.578 -23.496 2.918 -23.496 2.238 C-16.417 -1.874 -7.865 -2.4 0 0 Z " fill="#363334" transform="translate(484.49609375,296.76171875)"/>
<path d="M0 0 C-1.204 2.494 -2.454 4.681 -4 7 C-4.66 7 -5.32 7 -6 7 C-6.33 7.99 -6.66 8.98 -7 10 C-7.784 9.505 -8.567 9.01 -9.375 8.5 C-14.049 6.566 -18.014 6.734 -23 7 C-24.784 10.062 -25.229 12.221 -25.125 15.75 C-25.116 16.15 -25.116 16.15 -25.07 18.172 C-25.047 18.775 -25.024 19.378 -25 20 C-24.34 20 -23.68 20 -23 20 C-22.67 20.66 -22.34 21.32 -22 22 C-19.496 22.414 -19.496 22.414 -16.438 22.625 C-15.426 22.7 -14.414 22.775 -13.371 22.852 C-12.98 22.876 -12.98 22.876 -11 23 C-11 20.03 -11 17.06 -11 14 C-7.7 14 -4.4 14 -1 14 C-1 18.95 -1 23.9 -1 29 C-8.485 34.096 -17.214 34.449 -26 33 C-31.002 31.045 -33.823 27.746 -36.5 23.188 C-38.662 18.151 -39.001 13.111 -37.316 7.875 C-36.618 6.217 -35.818 4.602 -35 3 C-34.34 3 -33.68 3 -33 3 C-32.67 2.01 -32.34 1.02 -32 0 C-22.891 -6.579 -9.458 -5.297 0 0 Z " fill="#363334" transform="translate(580,184)"/>
<path d="M0 0 C3.039 -0.293 3.039 -0.293 6.625 -0.188 C7.814 -0.16 9.002 -0.133 10.227 -0.105 C11.142 -0.071 12.057 -0.036 13 0 C16.338 6.997 19.307 14.117 22.188 21.312 C22.36 21.742 22.36 21.742 23.232 23.917 C24.959 28.256 26.52 32.56 28 37 C23.71 37 19.42 37 15 37 C14.34 35.35 13.68 33.7 13 32 C10.69 31.835 10.69 31.835 -1 31 C-1.66 32.98 -2.32 34.96 -3 37 C-6.96 37 -10.92 37 -15 37 C-13.074 30.918 -10.827 25.078 -8.332 19.207 C-6.481 14.751 -4.796 10.237 -3.113 5.715 C-2 3 -2 3 0 0 Z M6 12 C5.329 13.456 4.663 14.915 4 16.375 C3.629 17.187 3.257 17.999 2.875 18.836 C2 21 2 21 2 23 C4.64 23 7.28 23 10 23 C9.328 19.194 8.273 15.648 7 12 C6.67 12 6.34 12 6 12 Z " fill="#363334" transform="translate(428,296)"/>
<path d="M0 0 C4.29 0 8.58 0 13 0 C16.598 6.796 19.3 13.808 22 21 C22.915 23.376 23.832 25.751 24.75 28.125 C25.889 31.073 27.001 34.002 28 37 C26.064 37.108 24.126 37.186 22.188 37.25 C21.109 37.296 20.03 37.343 18.918 37.391 C16 37 16 37 14.113 35.109 C13 33 13 33 13 31 C8.38 31 3.76 31 -1 31 C-1.66 32.98 -2.32 34.96 -3 37 C-6.96 37 -10.92 37 -15 37 C-13.62 32.584 -12.28 28.349 -10.125 24.25 C-7.735 19.681 -5.988 14.898 -4.172 10.078 C-2.875 6.671 -1.473 3.334 0 0 Z M6 12 C5.505 13.072 5.01 14.145 4.5 15.25 C4.222 15.853 3.943 16.457 3.656 17.078 C3 19 3 19 3 23 C5.31 23 7.62 23 10 23 C9.718 21.54 9.424 20.082 9.125 18.625 C9.044 18.219 9.044 18.219 8.633 16.164 C8 14 8 14 6 12 Z " fill="#363334" transform="translate(298,238)"/>
<path d="M0 0 C4.29 0 8.58 0 13 0 C16.441 7.961 19.818 15.932 23 24 C24.055 26.624 25.111 29.248 26.168 31.871 C26.829 33.562 27.426 35.278 28 37 C23.71 37 19.42 37 15 37 C14.34 35.02 13.68 33.04 13 31 C8.38 31 3.76 31 -1 31 C-1.66 32.98 -2.32 34.96 -3 37 C-6.96 37 -10.92 37 -15 37 C-11.961 27.402 -8.034 18.225 -3.914 9.047 C-2.574 6.046 -1.287 3.024 0 0 Z M6 12 C5.331 13.645 4.665 15.291 4 16.938 C3.629 17.854 3.258 18.771 2.875 19.715 C2 22 2 22 2 23 C4.64 23 7.28 23 10 23 C9.01 19.37 8.02 15.74 7 12 C6.67 12 6.34 12 6 12 Z " fill="#363334" transform="translate(684,238)"/>
<path d="M0 0 C1.079 0.046 2.158 0.093 3.27 0.141 C4.356 0.177 5.443 0.213 6.562 0.25 C7.394 0.296 8.225 0.343 9.082 0.391 C12.537 8.309 15.851 16.245 18.914 24.324 C20.582 28.702 22.331 33.045 24.082 37.391 C19.792 37.391 15.502 37.391 11.082 37.391 C10.422 35.411 9.762 33.431 9.082 31.391 C4.462 31.391 -0.158 31.391 -4.918 31.391 C-5.083 32.216 -5.083 32.216 -5.918 36.391 C-6.918 37.391 -6.918 37.391 -9.641 37.488 C-10.743 37.477 -11.845 37.465 -12.98 37.453 C-14.085 37.444 -15.19 37.435 -16.328 37.426 C-16.755 37.42 -16.755 37.42 -18.918 37.391 C-16.986 31.291 -14.749 25.415 -12.246 19.527 C-11.342 17.392 -10.457 15.248 -9.59 13.098 C-9.376 12.568 -9.376 12.568 -8.293 9.891 C-7.909 8.932 -7.525 7.972 -7.129 6.984 C-4.126 0.552 -4.126 0.552 0 0 Z M1.082 14.391 C0.092 17.361 -0.898 20.331 -1.918 23.391 C0.392 23.391 2.702 23.391 5.082 23.391 C4.596 20.268 4.083 17.395 3.082 14.391 C2.422 14.391 1.762 14.391 1.082 14.391 Z " fill="#363334" transform="translate(644.91796875,127.609375)"/>
<path d="M0 0 C1.5 2.188 1.5 2.188 2 4 C0.625 6 0.625 6 -1 8 C-1.66 8 -2.32 8 -3 8 C-3.33 8.99 -3.66 9.98 -4 11 C-4.969 10.484 -5.939 9.969 -6.938 9.438 C-11.415 7.474 -15.306 8.116 -20 9 C-22.367 13.383 -22.367 13.383 -23 16 C-21.968 18.787 -21.115 20.885 -19 23 C-17.151 23.234 -15.295 23.413 -13.438 23.562 C-12.426 23.646 -11.414 23.73 -10.371 23.816 C-9.98 23.847 -9.98 23.847 -8 24 C-8 21.03 -8 18.06 -8 15 C-4.7 15 -1.4 15 2 15 C2 19.95 2 24.9 2 30 C-5.43 35.059 -14.266 35.531 -23 34 C-26.339 32.537 -28.756 30.883 -31 28 C-31.33 27.01 -31.66 26.02 -32 25 C-32.66 25 -33.32 25 -34 25 C-35.559 18.96 -35.634 13.238 -33.938 7.25 C-31 2.323 -27.343 0.118 -22.25 -2.312 C-14.393 -3.975 -7.193 -3.662 0 0 Z " fill="#363334" transform="translate(207,131)"/>
<path d="M0 0 C0.551 0.006 0.551 0.006 3.34 0.035 C4.445 0.044 5.549 0.053 6.688 0.062 C7.542 0.074 8.397 0.086 9.277 0.098 C12.274 5.758 14.651 11.5 16.906 17.492 C18.671 22.134 20.528 26.736 22.398 31.336 C24.277 35.991 24.277 35.991 24.277 37.098 C19.987 37.098 15.697 37.098 11.277 37.098 C10.617 35.118 9.957 33.138 9.277 31.098 C4.657 31.098 0.037 31.098 -4.723 31.098 C-4.888 31.923 -4.888 31.923 -5.723 36.098 C-6.723 37.098 -6.723 37.098 -9.445 37.195 C-10.547 37.184 -11.65 37.172 -12.785 37.16 C-13.89 37.151 -14.995 37.142 -16.133 37.133 C-16.56 37.127 -16.56 37.127 -18.723 37.098 C-17.378 32.696 -15.994 28.43 -13.848 24.348 C-11.468 19.807 -9.743 15.05 -7.969 10.246 C-3.97 0.142 -3.97 0.142 0 0 Z M2.277 12.098 C1.782 13.17 1.287 14.243 0.777 15.348 C0.499 15.951 0.22 16.554 -0.066 17.176 C-0.723 19.098 -0.723 19.098 -0.723 23.098 C1.587 23.098 3.897 23.098 6.277 23.098 C5.39 19.399 4.332 15.752 3.277 12.098 C2.947 12.098 2.617 12.098 2.277 12.098 Z " fill="#363334" transform="translate(643.72265625,179.90234375)"/>
<path d="M0 0 C1.087 0.036 2.173 0.072 3.293 0.109 C4.124 0.156 4.956 0.202 5.812 0.25 C9.625 7.289 12.3 14.697 15.051 22.193 C16.916 27.233 18.876 32.237 20.812 37.25 C16.522 37.25 12.233 37.25 7.812 37.25 C7.152 35.27 6.493 33.29 5.812 31.25 C1.192 31.25 -3.428 31.25 -8.188 31.25 C-8.353 32.075 -8.353 32.075 -9.188 36.25 C-10.188 37.25 -10.188 37.25 -12.91 37.348 C-14.012 37.336 -15.114 37.324 -16.25 37.312 C-17.355 37.303 -18.459 37.294 -19.598 37.285 C-20.025 37.279 -20.025 37.279 -22.188 37.25 C-20.63 32.152 -18.853 27.491 -16.359 22.762 C-14.411 18.585 -12.909 14.231 -11.382 9.885 C-7.703 -0.331 -7.703 -0.331 0 0 Z M-1.188 12.25 C-2.507 15.88 -3.827 19.51 -5.188 23.25 C-2.548 23.25 0.092 23.25 2.812 23.25 C1.925 19.551 0.867 15.904 -0.188 12.25 C-0.517 12.25 -0.848 12.25 -1.188 12.25 Z " fill="#363434" transform="translate(452.1875,179.75)"/>
<path d="M0 0 C1.091 0.023 2.181 0.046 3.305 0.07 C4.4 0.088 5.496 0.106 6.625 0.125 C7.468 0.148 8.311 0.171 9.18 0.195 C12.634 8.114 15.948 16.049 19.012 24.129 C20.679 28.507 22.429 32.85 24.18 37.195 C19.89 37.195 15.6 37.195 11.18 37.195 C10.52 35.215 9.86 33.235 9.18 31.195 C4.56 31.195 -0.06 31.195 -4.82 31.195 C-4.985 32.02 -4.985 32.02 -5.82 36.195 C-6.82 37.195 -6.82 37.195 -9.543 37.293 C-10.645 37.281 -11.747 37.27 -12.883 37.258 C-13.988 37.249 -15.092 37.24 -16.23 37.23 C-16.658 37.225 -16.658 37.225 -18.82 37.195 C-14.067 23.324 -14.067 23.324 -10.859 17.34 C-8.921 13.34 -7.489 9.126 -5.969 4.953 C-4.493 1.408 -3.919 0.271 0 0 Z M2.18 12.195 C0.86 15.825 -0.46 19.455 -1.82 23.195 C0.82 23.195 3.46 23.195 6.18 23.195 C5.292 19.496 4.234 15.85 3.18 12.195 C2.85 12.195 2.52 12.195 2.18 12.195 Z " fill="#363334" transform="translate(411.8203125,127.8046875)"/>
<path d="M0 0 C4.29 0 8.58 0 13 0 C14.584 3.791 16.167 7.583 17.75 11.375 C18.193 12.436 18.637 13.497 19.094 14.59 C20.401 17.724 21.701 20.862 23 24 C23.403 24.962 23.806 25.924 24.221 26.915 C24.403 27.358 24.403 27.358 25.328 29.602 C25.652 30.381 25.976 31.16 26.31 31.963 C27 34 27 34 27 37 C25.042 37.081 23.084 37.139 21.125 37.188 C20.58 37.205 20.58 37.205 17.82 37.293 C16.89 37.196 15.959 37.1 15 37 C13 34 13 34 13 31 C8.38 31 3.76 31 -1 31 C-1.66 32.98 -2.32 34.96 -3 37 C-6.96 37 -10.92 37 -15 37 C-13.62 32.584 -12.28 28.349 -10.125 24.25 C-7.735 19.681 -5.988 14.898 -4.172 10.078 C-2.875 6.671 -1.473 3.334 0 0 Z M6 13 C3.966 16.73 3 18.669 3 23 C5.31 23 7.62 23 10 23 C9.01 19.7 8.02 16.4 7 13 C6.67 13 6.34 13 6 13 Z " fill="#363334" transform="translate(505,296)"/>
<path d="M0 0 C0.551 0.006 0.551 0.006 3.34 0.035 C4.445 0.044 5.549 0.053 6.688 0.062 C7.542 0.074 8.397 0.086 9.277 0.098 C12.996 6.794 15.633 13.669 18.103 20.89 C19.894 26.105 21.954 31.094 24.277 36.098 C24.277 36.428 24.277 36.758 24.277 37.098 C19.987 37.098 15.697 37.098 11.277 37.098 C10.947 35.118 10.617 33.138 10.277 31.098 C5.327 31.098 0.377 31.098 -4.723 31.098 C-5.053 33.078 -5.383 35.058 -5.723 37.098 C-10.013 37.098 -14.303 37.098 -18.723 37.098 C-16.078 30.327 -13.24 23.665 -10.304 17.017 C-8.239 12.327 -6.287 7.605 -4.449 2.82 C-3.285 0.06 -3.159 0.113 0 0 Z M2.277 12.098 C1.771 13.366 1.273 14.637 0.777 15.91 C0.499 16.618 0.22 17.326 -0.066 18.055 C-0.723 20.098 -0.723 20.098 -0.723 23.098 C1.587 23.098 3.897 23.098 6.277 23.098 C5.995 21.638 5.701 20.18 5.402 18.723 C5.321 18.317 5.321 18.317 4.91 16.262 C4.277 14.098 4.277 14.098 2.277 12.098 Z " fill="#363334" transform="translate(358.72265625,127.90234375)"/>
<path d="M0 0 C0.786 -0.024 1.573 -0.049 2.383 -0.074 C8.159 -0.103 11.467 1.139 16.25 4.375 C15.001 7.834 13.575 10.522 11.25 13.375 C7.375 12.5 7.375 12.5 6.25 11.375 C3.852 11.137 3.852 11.137 0.875 11.062 C0.386 11.044 0.386 11.044 -2.086 10.949 C-4.75 11.375 -4.75 11.375 -6.547 13.277 C-8.602 16.861 -8.602 16.861 -8.75 19.375 C-7.875 22.562 -7.875 22.562 -5.75 25.375 C-1.799 26.513 2.17 26.375 6.25 26.375 C6.25 23.735 6.25 21.095 6.25 18.375 C9.22 18.375 12.19 18.375 15.25 18.375 C15.385 20.814 15.484 23.246 15.562 25.688 C15.604 26.378 15.646 27.068 15.689 27.779 C15.738 29.801 15.738 29.801 15.25 33.375 C9.498 38.374 1.447 37.778 -5.75 37.375 C-10.886 36.309 -14.047 34.078 -17.75 30.375 C-20.806 25.078 -21.513 20.352 -20.75 14.375 C-17.682 4.147 -10.29 0.017 0 0 Z " fill="#363334" transform="translate(635.75,237.625)"/>
<path d="M0 0 C4.29 0 8.58 0 13 0 C13.41 1.097 13.82 2.194 14.242 3.324 C14.786 4.779 15.331 6.233 15.875 7.688 C16.144 8.409 16.414 9.13 16.691 9.873 C18.087 13.599 19.502 17.313 21 21 C23.237 14.925 25.422 8.849 27.387 2.68 C28 1 28 1 29 0 C31.02 -0.072 33.042 -0.084 35.062 -0.062 C35.615 -0.058 35.615 -0.058 38.41 -0.035 C39.265 -0.024 40.119 -0.012 41 0 C40.636 0.969 40.273 1.939 39.898 2.938 C39.658 3.578 39.418 4.218 39.171 4.878 C38.635 6.306 38.099 7.735 37.563 9.163 C36.153 12.925 34.743 16.686 33.336 20.449 C33.203 20.805 33.203 20.805 32.53 22.604 C32.021 23.963 31.513 25.322 31.005 26.682 C29.711 30.14 28.372 33.571 27 37 C22.71 37 18.42 37 14 37 C9.016 24.767 4.274 12.5 0 0 Z " fill="#363334" transform="translate(377,296)"/>
<path d="M0 0 C0 0.66 0 1.32 0 2 C0.99 2.33 1.98 2.66 3 3 C3 3.66 3 4.32 3 5 C2.34 5 1.68 5 1 5 C0.752 5.619 0.505 6.238 0.25 6.875 C-1 9 -1 9 -2.812 10.438 C-3.173 10.53 -3.173 10.53 -5 11 C-5.371 10.763 -5.371 10.763 -7.25 9.562 C-11.203 7.317 -13.597 8.179 -18 9 C-20.581 16.743 -20.581 16.743 -19 21 C-15.258 23.495 -13.438 23.376 -9 23 C-5.562 21.5 -5.562 21.5 -3 20 C-3 20.66 -3 21.32 -3 22 C-2.381 22.248 -1.762 22.495 -1.125 22.75 C1.351 24.206 1.951 25.378 3 28 C2.01 28.33 1.02 28.66 0 29 C0 29.66 0 30.32 0 31 C-4.657 33.709 -8.129 34.432 -13.5 34.438 C-14.134 34.447 -14.134 34.447 -17.344 34.496 C-21.554 33.925 -23.75 32.693 -27 30 C-27 29.34 -27 28.68 -27 28 C-27.99 27.67 -28.98 27.34 -30 27 C-33.195 21.439 -33.757 16.347 -33 10 C-31.239 4.815 -28.442 2.135 -24 -1 C-15.964 -4.835 -7.837 -3.483 0 0 Z " fill="#363335" transform="translate(321,131)"/>
<path d="M0 0 C0.711 0.001 1.422 0.001 2.154 0.002 C8.046 0.17 11.017 1.392 15.125 5.5 C14.795 7.15 14.465 8.8 14.125 10.5 C13.465 10.5 12.805 10.5 12.125 10.5 C11.465 11.82 10.805 13.14 10.125 14.5 C9.486 14.005 8.846 13.51 8.188 13 C4.215 11.054 0.488 10.667 -3.875 11.5 C-5.629 12.777 -5.629 12.777 -6.875 14.5 C-7.238 19.074 -7.499 22.564 -4.875 26.5 C-0.253 26.681 2.903 26.326 7.125 24.5 C11.125 24.5 11.125 24.5 13.375 26.25 C15.125 28.5 15.125 28.5 15.125 32.5 C8.58 37.707 2.289 38.334 -5.875 37.5 C-11.652 35.593 -15.612 32.793 -18.562 27.438 C-20.612 22.282 -21.107 16.498 -18.973 11.305 C-17.875 9.375 -17.875 9.375 -15.875 6.5 C-15.215 6.5 -14.555 6.5 -13.875 6.5 C-13.545 5.51 -13.215 4.52 -12.875 3.5 C-8.85 0.28 -4.986 -0.042 0 0 Z " fill="#363334" transform="translate(250.875,237.5)"/>
<path d="M0 0 C0.536 0.454 1.072 0.907 1.625 1.375 C1.146 5.689 -0.121 7.541 -3.375 10.375 C-3.87 10.066 -4.365 9.756 -4.875 9.438 C-9.27 7.569 -13.778 6.843 -18.375 8.375 C-18.705 9.035 -19.035 9.695 -19.375 10.375 C-20.035 10.375 -20.695 10.375 -21.375 10.375 C-21.045 13.675 -20.715 16.975 -20.375 20.375 C-19.715 20.375 -19.055 20.375 -18.375 20.375 C-18.375 21.035 -18.375 21.695 -18.375 22.375 C-12.533 22.726 -8.522 22.542 -3.375 19.375 C-0.875 21.625 -0.875 21.625 1.625 24.375 C1.625 25.695 1.625 27.015 1.625 28.375 C0.965 28.375 0.305 28.375 -0.375 28.375 C-0.375 29.035 -0.375 29.695 -0.375 30.375 C-5.032 33.084 -8.504 33.807 -13.875 33.812 C-14.509 33.822 -14.509 33.822 -17.719 33.871 C-21.929 33.3 -24.125 32.068 -27.375 29.375 C-27.375 28.715 -27.375 28.055 -27.375 27.375 C-28.365 27.045 -29.355 26.715 -30.375 26.375 C-33.576 20.803 -34.113 15.731 -33.375 9.375 C-31.587 3.563 -27.479 0.382 -22.375 -2.625 C-15.058 -5.088 -6.365 -4.355 0 0 Z " fill="#363334" transform="translate(238.375,183.625)"/>
<path d="M0 0 C1.268 -0.008 2.537 -0.015 3.844 -0.023 C7.784 0.406 10.186 1.221 13.5 3.375 C14.16 4.695 14.82 6.015 15.5 7.375 C13.52 9.685 11.54 11.995 9.5 14.375 C8.51 14.045 7.52 13.715 6.5 13.375 C6.5 12.715 6.5 12.055 6.5 11.375 C4.897 11.294 3.292 11.236 1.688 11.188 C0.794 11.153 -0.099 11.118 -1.02 11.082 C-3.5 11.375 -3.5 11.375 -5.27 12.742 C-6.988 15.022 -7.367 16.515 -7.5 19.375 C-6.438 22.625 -6.438 22.625 -4.5 25.375 C-0.138 26.892 2.418 26.309 6.5 24.375 C7.827 24.016 9.158 23.673 10.5 23.375 C11.325 24.365 11.325 24.365 15.5 29.375 C14.042 33.22 12.135 34.557 8.5 36.375 C2.612 38.165 -3.371 37.978 -9.25 36.312 C-13.743 33.634 -17.147 30.08 -19.5 25.375 C-19.597 23.043 -19.63 20.709 -19.625 18.375 C-19.628 17.117 -19.63 15.859 -19.633 14.562 C-19.5 11.375 -19.5 11.375 -18.5 9.375 C-17.84 9.375 -17.18 9.375 -16.5 9.375 C-16.5 8.385 -16.5 7.395 -16.5 6.375 C-12.438 0.959 -6.379 -0.039 0 0 Z " fill="#363334" transform="translate(442.5,237.625)"/>
<path d="M0 0 C1.268 -0.008 2.537 -0.015 3.844 -0.023 C7.784 0.406 10.186 1.221 13.5 3.375 C14.16 4.695 14.82 6.015 15.5 7.375 C13.52 9.685 11.54 11.995 9.5 14.375 C8.51 14.045 7.52 13.715 6.5 13.375 C6.5 12.715 6.5 12.055 6.5 11.375 C4.897 11.294 3.292 11.236 1.688 11.188 C0.794 11.153 -0.099 11.118 -1.02 11.082 C-3.5 11.375 -3.5 11.375 -5.27 12.742 C-6.988 15.022 -7.367 16.515 -7.5 19.375 C-6.438 22.625 -6.438 22.625 -4.5 25.375 C-0.138 26.892 2.418 26.309 6.5 24.375 C7.827 24.016 9.158 23.673 10.5 23.375 C11.325 24.365 11.325 24.365 15.5 29.375 C14.042 33.22 12.135 34.557 8.5 36.375 C2.612 38.165 -3.371 37.978 -9.25 36.312 C-13.584 33.729 -17.472 30.367 -19.156 25.465 C-19.55 23.07 -19.632 20.802 -19.625 18.375 C-19.628 17.529 -19.63 16.684 -19.633 15.812 C-19.508 13.528 -19.139 11.565 -18.5 9.375 C-17.84 9.375 -17.18 9.375 -16.5 9.375 C-16.5 8.385 -16.5 7.395 -16.5 6.375 C-12.438 0.959 -6.379 -0.039 0 0 Z " fill="#363334" transform="translate(120.5,237.625)"/>
<path d="M0 0 C3.96 -0.103 7.92 -0.206 12 -0.312 C12.616 -0.335 12.616 -0.335 15.734 -0.45 C24.499 -0.56 29.286 1.378 35.5 7.438 C37.935 13.22 37.935 18.836 37 25 C34.681 30.092 31.104 33.655 26 36 C22.941 37.02 20.876 37.115 17.676 37.098 C17.213 37.096 17.213 37.096 14.868 37.09 C13.695 37.081 12.522 37.072 11.312 37.062 C7.579 37.042 3.846 37.021 0 37 C0 24.79 0 12.58 0 0 Z M8 6 C8 14.25 8 22.5 8 31 C21.919 31 21.919 31 27 27 C29.545 23.607 30.234 21.084 29.938 16.938 C29.267 13.084 27.791 10.791 25 8 C21.263 5.509 19.255 5.793 14.812 5.875 C12.564 5.916 10.316 5.957 8 6 Z " fill="#363334" transform="translate(637,70)"/>
<path d="M0 0 C1.938 1.688 1.938 1.688 3 3 C2.34 4.65 1.68 6.3 1 8 C0.34 8 -0.32 8 -1 8 C-1.33 8.99 -1.66 9.98 -2 11 C-2.566 10.683 -3.132 10.366 -3.715 10.039 C-6.106 8.952 -7.959 8.613 -10.562 8.375 C-11.327 8.3 -12.091 8.225 -12.879 8.148 C-14.582 8.029 -16.292 8 -18 8 C-18 8.99 -18 9.98 -18 11 C-18.66 11 -19.32 11 -20 11 C-19.52 18.2 -19.52 18.2 -17.375 21.5 C-13.531 23.928 -9.973 23.312 -5.625 22.625 C-4 22 -4 22 -3 20 C0.452 22.478 2.232 23.796 3 28 C-1.628 32.968 -5.711 34.506 -12.5 34.75 C-18.279 34.497 -22.203 33.817 -26.48 29.828 C-31.039 24.344 -32.616 19.496 -32.34 12.344 C-31.878 9.158 -30.709 6.706 -29 4 C-28.34 4 -27.68 4 -27 4 C-27 3.34 -27 2.68 -27 2 C-26.34 2 -25.68 2 -25 2 C-25 1.34 -25 0.68 -25 0 C-16.329 -3.854 -8.496 -4.682 0 0 Z " fill="#363334" transform="translate(606,131)"/>
<path d="M0 0 C7 0 7 0 9.215 1.68 C9.783 2.404 10.352 3.129 10.938 3.875 C11.231 4.235 11.231 4.235 12.715 6.055 C14 8 14 8 14 10 C14.66 10 15.32 10 16 10 C16.268 10.804 16.536 11.609 16.812 12.438 C17.204 13.283 17.596 14.129 18 15 C18.99 15.33 19.98 15.66 21 16 C21.66 16.99 21.66 16.99 25 22 C25.33 14.74 25.66 7.48 26 0 C28.31 0 30.62 0 33 0 C33 11.88 33 23.76 33 36 C26 36 26 36 24.062 34.625 C23 33 23 33 23 31 C22.34 31 21.68 31 21 31 C19.39 29.095 17.905 27.197 16.438 25.188 C16.026 24.64 15.614 24.093 15.189 23.529 C13.339 21.03 11.99 18.97 11 16 C10.34 16 9.68 16 9 16 C8.67 22.6 8.34 29.2 8 36 C5.36 36 2.72 36 0 36 C0 24.12 0 12.24 0 0 Z " fill="#363334" transform="translate(1314,103)"/>
<path d="M0 0 C1.66 -0.021 1.66 -0.021 10.062 -0.125 C10.579 -0.134 10.579 -0.134 13.192 -0.18 C18.539 -0.212 22.949 0.221 28 2 C28 2.66 28 3.32 28 4 C28.99 4 29.98 4 31 4 C35.136 7.182 36.19 12.047 37 17 C36.687 22.089 35.288 27.054 32 31 C25.634 36.551 19.646 36.627 11.5 36.312 C9.602 36.261 9.602 36.261 0 36 C0 24.12 0 12.24 0 0 Z M8 6 C8 13.92 8 21.84 8 30 C21.125 30.67 21.125 30.67 24.75 27.688 C27.49 24.414 28.141 22.146 28.125 18 C28.128 17.319 28.13 16.639 28.133 15.938 C27.962 13.44 27.348 11.512 25.938 9.438 C20.61 5.485 14.349 6 8 6 Z " fill="#363334" transform="translate(1419,103)"/>
<path d="M0 0 C4.189 4.52 5.15 7.798 5.188 13.875 C5.202 14.904 5.216 15.932 5.23 16.992 C4.845 22.019 3.261 25.283 -0.375 28.75 C-5.475 33.006 -10.535 33.305 -17 33 C-23.023 32.406 -26.839 30.258 -31 26 C-34.937 20.62 -34.907 14.407 -34 8 C-32.187 3.49 -29.397 -0.738 -25 -3 C-16.021 -6.096 -7.798 -5.615 0 0 Z M-23.812 5.438 C-26.616 9.127 -26.485 13.575 -26 18 C-24.334 21.748 -22.434 23.812 -19 26 C-14.888 26.875 -10.846 26.894 -7.016 25.039 C-4.167 22.692 -3.128 20.904 -2.605 17.223 C-2.501 9.998 -2.501 9.998 -4 7 C-4.66 7 -5.32 7 -6 7 C-6.33 6.01 -6.66 5.02 -7 4 C-12.722 1.062 -18.683 1.369 -23.812 5.438 Z " fill="#363334" transform="translate(1495,107)"/>
<path d="M0 0 C4.69 4.931 5.076 10.449 5 17 C4.091 22.634 2.308 25.308 -2 29 C-2.596 29.525 -3.191 30.049 -3.805 30.59 C-8.506 33.61 -15.162 33.433 -20.562 32.609 C-22.396 32.151 -24.203 31.587 -26 31 C-26 30.34 -26 29.68 -26 29 C-26.99 29 -27.98 29 -29 29 C-29 28.34 -29 27.68 -29 27 C-29.66 27 -30.32 27 -31 27 C-34.057 21.105 -35.847 16.669 -35 10 C-33.169 4.731 -30.447 0.437 -26 -3 C-17.213 -6.277 -7.746 -5.546 0 0 Z M-25.375 7.812 C-27.184 11.36 -27.571 13.083 -27 17 C-25.733 20.401 -24.599 22.471 -21.875 24.875 C-17.852 26.449 -14.257 26.85 -10 26 C-7.062 23.625 -7.062 23.625 -5 21 C-4.34 20.34 -3.68 19.68 -3 19 C-2.431 15.616 -2.472 12.388 -3 9 C-5.473 5.703 -8.074 3.35 -12 2 C-17.761 1.242 -21.704 3.465 -25.375 7.812 Z " fill="#353233" transform="translate(1188,107)"/>
<path d="M0 0 C0 0.66 0 1.32 0 2 C0.99 2 1.98 2 3 2 C3 2.99 3 3.98 3 5 C3.99 5.33 4.98 5.66 6 6 C8.334 12.142 8.865 17.359 6.812 23.625 C4.313 28.278 1.365 31.09 -3 34 C-11.127 35.473 -17.192 35.125 -24.688 31.812 C-28.603 28.744 -30.433 24.701 -32 20 C-32.457 14.167 -31.225 10.284 -29 5 C-28.34 5 -27.68 5 -27 5 C-27 4.01 -27 3.02 -27 2 C-26.01 2 -25.02 2 -24 2 C-24 1.34 -24 0.68 -24 0 C-14.995 -3.266 -9.114 -3.418 0 0 Z M-21.613 8.344 C-24.19 11.421 -24.226 15.107 -24 19 C-22.575 23.046 -20.604 25.597 -17 28 C-12.232 28.695 -8.234 28.694 -4 26.312 C-0.65 22.439 0.219 19.572 0 14.5 C-0.531 10.798 -1.018 9.979 -3.625 7 C-10.424 2.971 -15.512 3.261 -21.613 8.344 Z " fill="#363334" transform="translate(1387,105)"/>
<path d="M0 0 C1.846 -0.021 1.846 -0.021 11.188 -0.125 C11.765 -0.134 11.765 -0.134 14.688 -0.18 C15.61 -0.185 16.531 -0.19 17.48 -0.195 C18.418 -0.206 19.355 -0.216 20.321 -0.227 C24.067 0.09 26.934 1.048 29.75 3.562 C32.19 8.321 32.398 13.209 31.25 18.375 C30.069 20.855 29.187 22.359 27 24 C26.34 24 25.68 24 25 24 C28.634 30.517 28.634 30.517 30.75 33.312 C32 35 32 35 32 37 C29.36 37 26.72 37 24 37 C24 36.34 24 35.68 24 35 C23.34 35 22.68 35 22 35 C21.269 33.711 20.59 32.393 19.938 31.062 C18.367 28.38 17.667 27.216 14.672 26.246 C12.188 26 12.188 26 8 26 C8 29.63 8 33.26 8 37 C5.36 37 2.72 37 0 37 C0 24.79 0 12.58 0 0 Z M8 6 C8 10.62 8 15.24 8 20 C8.949 20.031 8.949 20.031 13.75 20.188 C14.817 20.222 15.885 20.257 16.984 20.293 C20.355 19.965 21.688 19.45 24 17 C24.531 15.062 24.531 15.062 24.5 13 C24.51 12.319 24.521 11.639 24.531 10.938 C24 9 24 9 22.359 7.262 C19.32 5.637 17.176 5.701 13.75 5.812 C11.853 5.874 9.955 5.936 8 6 Z " fill="#363334" transform="translate(385,70)"/>
<path d="M0 0 C3.671 -0.062 7.342 -0.124 11.125 -0.188 C11.698 -0.201 11.698 -0.201 14.598 -0.27 C20.109 -0.315 24.325 -0.288 29 3 C31.628 6.943 31.936 10.317 32 15 C31.144 18.851 30.213 21.59 27 24 C26.34 24 25.68 24 25 24 C25.505 24.771 26.011 25.542 26.531 26.336 C27.181 27.339 27.831 28.342 28.5 29.375 C29.15 30.373 29.799 31.37 30.469 32.398 C32 35 32 35 32 37 C29.36 37 26.72 37 24 37 C24 36.34 24 35.68 24 35 C23.34 35 22.68 35 22 35 C22 34.01 22 33.02 22 32 C21.34 32 20.68 32 20 32 C19.649 31.196 19.299 30.391 18.938 29.562 C17 27 17 27 14.805 26.445 C12.544 26.211 10.271 26.099 8 26 C8 29.63 8 33.26 8 37 C5.36 37 2.72 37 0 37 C0 24.79 0 12.58 0 0 Z M8 6 C8 10.62 8 15.24 8 20 C9.939 20.021 11.878 20.041 13.875 20.062 C14.42 20.068 14.42 20.068 17.18 20.098 C20 20 20 20 22 19 C22 18.34 22 17.68 22 17 C22.66 17 23.32 17 24 17 C24.8 13.713 25.097 12.29 24 9 C23.34 9 22.68 9 22 9 C22 8.34 22 7.68 22 7 C19.235 5.618 16.954 5.905 13.875 5.938 C11.936 5.958 9.997 5.979 8 6 Z " fill="#363334" transform="translate(528,70)"/>
<path d="M0 0 C9.57 0 19.14 0 29 0 C29 2.97 29 5.94 29 9 C23.06 9 17.12 9 11 9 C11 11.31 11 13.62 11 16 C16.28 16 21.56 16 27 16 C27 19.3 27 22.6 27 26 C21.72 26 16.44 26 11 26 C11 29.63 11 33.26 11 37 C7.37 37 3.74 37 0 37 C0 24.79 0 12.58 0 0 Z " fill="#363334" transform="translate(527,128)"/>
<path d="M0 0 C3.156 -0.062 6.311 -0.124 9.562 -0.188 C10.543 -0.215 11.523 -0.242 12.533 -0.27 C18.87 -0.33 23.91 0.322 28.875 4.625 C30.622 8.314 31.148 11.928 31 16 C29.562 19.562 29.562 19.562 28 22 C27.34 22 26.68 22 26 22 C26 22.66 26 23.32 26 24 C25.34 24 24.68 24 24 24 C24.578 24.782 25.155 25.565 25.75 26.371 C26.121 26.877 26.121 26.877 28 29.438 C28.743 30.447 29.485 31.456 30.25 32.496 C32 35 32 35 32 36 C28.7 36 25.4 36 22 36 C22 35.01 22 34.02 22 33 C21.34 33 20.68 33 20 33 C19.711 32.361 19.422 31.721 19.125 31.062 C18 29 18 29 16 28 C16 27.34 16 26.68 16 26 C13.36 26 10.72 26 8 26 C8 29.3 8 32.6 8 36 C5.36 36 2.72 36 0 36 C0 24.12 0 12.24 0 0 Z M8 6 C8 10.62 8 15.24 8 20 C13.22 20.18 17.073 19.971 22 18 C22.75 14.75 22.75 14.75 23 11 C21.268 8.563 19.942 7.39 17.188 6.25 C14.144 5.902 11.064 6 8 6 Z " fill="#363334" transform="translate(1275,103)"/>
<path d="M0 0 C0 1.32 0 2.64 0 4 C-2 5.75 -2 5.75 -4 7 C-5.031 6.34 -6.062 5.68 -7.125 5 C-10.587 3.032 -12.97 2.474 -17 3 C-21.036 4.126 -22.804 5.457 -25 9 C-25.877 13.857 -25.714 17.833 -23.125 22.062 C-19.634 25.246 -17.521 25.112 -12.875 25.062 C-11.779 25.053 -10.684 25.044 -9.555 25.035 C-8.712 25.024 -7.869 25.012 -7 25 C-7 23.35 -7 21.7 -7 20 C-8.98 20 -10.96 20 -13 20 C-13 17.69 -13 15.38 -13 13 C-8.71 13 -4.42 13 0 13 C0.135 15.606 0.234 18.205 0.312 20.812 C0.354 21.55 0.396 22.288 0.439 23.049 C0.488 25.207 0.488 25.207 0 29 C-5.181 33.294 -11.493 33.483 -18 33 C-24.048 31.77 -27.702 29.626 -31.75 25 C-34.735 20.225 -34.589 14.45 -34 9 C-32.351 3.749 -29.804 -0.161 -25 -3 C-16.115 -6.11 -7.892 -5.262 0 0 Z " fill="#343232" transform="translate(1146,107)"/>
<path d="M0 0 C9.24 0 18.48 0 28 0 C28 1.98 28 3.96 28 6 C21.4 6 14.8 6 8 6 C8 8.97 8 11.94 8 15 C13.94 15 19.88 15 26 15 C26 16.98 26 18.96 26 21 C20.06 21 14.12 21 8 21 C8 24.3 8 27.6 8 31 C14.93 31 21.86 31 29 31 C29 32.98 29 34.96 29 37 C19.43 37 9.86 37 0 37 C0 24.79 0 12.58 0 0 Z " fill="#363334" transform="translate(680,70)"/>
<path d="M0 0 C9.24 0 18.48 0 28 0 C28 1.98 28 3.96 28 6 C21.4 6 14.8 6 8 6 C8 8.97 8 11.94 8 15 C13.94 15 19.88 15 26 15 C26 16.98 26 18.96 26 21 C20.06 21 14.12 21 8 21 C8 24.3 8 27.6 8 31 C14.93 31 21.86 31 29 31 C29 32.98 29 34.96 29 37 C19.43 37 9.86 37 0 37 C0 24.79 0 12.58 0 0 Z " fill="#363334" transform="translate(423,70)"/>
<path d="M0 0 C9.24 0 18.48 0 28 0 C28 1.98 28 3.96 28 6 C21.4 6 14.8 6 8 6 C8 8.97 8 11.94 8 15 C13.94 15 19.88 15 26 15 C26 16.98 26 18.96 26 21 C20.06 21 14.12 21 8 21 C8 24.3 8 27.6 8 31 C14.93 31 21.86 31 29 31 C29 32.98 29 34.96 29 37 C19.43 37 9.86 37 0 37 C0 24.79 0 12.58 0 0 Z " fill="#363334" transform="translate(311,70)"/>
<path d="M0 0 C11.22 0 22.44 0 34 0 C34 2.97 34 5.94 34 9 C30.37 9 26.74 9 23 9 C23 18.24 23 27.48 23 37 C19.04 37 15.08 37 11 37 C11 27.76 11 18.52 11 9 C7.37 9 3.74 9 0 9 C0 6.03 0 3.06 0 0 Z " fill="#363334" transform="translate(597,180)"/>
<path d="M0 0 C11.22 0 22.44 0 34 0 C34 2.97 34 5.94 34 9 C30.37 9 26.74 9 23 9 C23 18.24 23 27.48 23 37 C19.04 37 15.08 37 11 37 C11 27.76 11 18.52 11 9 C7.37 9 3.74 9 0 9 C0 6.03 0 3.06 0 0 Z " fill="#363334" transform="translate(473,128)"/>
<path d="M0 0 C2.64 0 5.28 0 8 0 C11.829 7.367 15.347 14.579 18.023 22.457 C19.346 25.902 21.128 28.981 23.047 32.125 C24 34 24 34 24 37 C21.36 37 18.72 37 16 37 C15.01 34.69 14.02 32.38 13 30 C7.06 30 1.12 30 -5 30 C-5.99 32.31 -6.98 34.62 -8 37 C-10.97 37 -13.94 37 -17 37 C-11.831 24.396 -6.153 12.146 0 0 Z M3 9 C2.348 10.393 1.703 11.789 1.062 13.188 C0.883 13.576 0.883 13.576 -0.027 15.543 C-1 18 -1 18 -2 23 C1.96 23 5.92 23 10 23 C8.7 18.101 7.076 13.624 5 9 C4.34 9 3.68 9 3 9 Z " fill="#363334" transform="translate(688,296)"/>
<path d="M0 0 C2.97 0 5.94 0 9 0 C9.516 1.341 10.031 2.681 10.562 4.062 C12.626 9.236 14.965 14.263 17.346 19.295 C20.089 25.119 22.588 31.032 25 37 C22.03 37 19.06 37 16 37 C15.01 34.69 14.02 32.38 13 30 C7.06 30 1.12 30 -5 30 C-5.99 32.31 -6.98 34.62 -8 37 C-10.64 37 -13.28 37 -16 37 C-13.979 31.151 -11.871 25.512 -9 20.027 C-7.866 17.728 -6.931 15.389 -6 13 C-4.25 8.514 -2.216 4.274 0 0 Z M4 8 C1.366 12.922 -0.645 17.579 -2 23 C1.96 23 5.92 23 10 23 C9.232 19.162 8.405 16.238 6.938 12.688 C6.575 11.804 6.213 10.921 5.84 10.012 C5.563 9.348 5.286 8.684 5 8 C4.67 8 4.34 8 4 8 Z " fill="#363334" transform="translate(594,70)"/>
<path d="M0 0 C2.97 0 5.94 0 9 0 C10.731 3.916 12.46 7.833 14.188 11.75 C14.429 12.296 14.429 12.296 15.65 15.059 C18.858 22.336 21.971 29.647 25 37 C22.03 37 19.06 37 16 37 C15.01 34.69 14.02 32.38 13 30 C7.06 30 1.12 30 -5 30 C-5.99 32.31 -6.98 34.62 -8 37 C-10.64 37 -13.28 37 -16 37 C-13.979 31.151 -11.871 25.512 -9 20.027 C-7.866 17.728 -6.931 15.389 -6 13 C-4.25 8.514 -2.216 4.274 0 0 Z M4 8 C1.366 12.922 -0.645 17.579 -2 23 C2.29 23 6.58 23 11 23 C10.34 21.35 9.68 19.7 9 18 C7.667 14.667 6.333 11.333 5 8 C4.67 8 4.34 8 4 8 Z " fill="#363334" transform="translate(499,70)"/>
<path d="M0 0 C1.127 0.079 2.253 0.157 3.414 0.238 C6.375 0.688 6.375 0.688 9.375 2.688 C9.045 4.668 8.715 6.647 8.375 8.688 C7.854 8.524 7.333 8.36 6.797 8.191 C3.699 7.547 0.787 7.593 -2.375 7.625 C-2.96 7.63 -2.96 7.63 -5.922 7.652 C-6.814 7.664 -7.706 7.676 -8.625 7.688 C-9.559 10.698 -9.669 11.554 -8.625 14.688 C-8.068 14.713 -7.511 14.739 -6.938 14.766 C-0.391 15.252 4.94 16.883 10.078 21.078 C11.982 23.441 11.787 25.757 11.652 28.691 C11.229 31.739 10.418 33.381 8.375 35.688 C2.656 39.143 -3.042 39.56 -9.625 38.688 C-12.796 37.63 -15.702 36.304 -18.625 34.688 C-18.25 31.75 -18.25 31.75 -17.625 28.688 C-16.965 28.358 -16.305 28.027 -15.625 27.688 C-14.821 28.162 -14.016 28.636 -13.188 29.125 C-8.29 31.273 -3.894 30.941 1.375 30.688 C3.375 26.938 3.375 26.938 3.375 24.688 C2.663 24.548 1.952 24.409 1.219 24.266 C-13.867 21.199 -13.867 21.199 -17.625 15.688 C-18.574 11.755 -18.907 9.533 -17.625 5.688 C-16.965 5.688 -16.305 5.688 -15.625 5.688 C-15.295 4.697 -14.965 3.707 -14.625 2.688 C-9.769 -0.55 -5.723 -0.441 0 0 Z " fill="#363334" transform="translate(642.625,295.3125)"/>
<path d="M0 0 C-0.66 1.98 -1.32 3.96 -2 6 C-2.51 5.836 -3.021 5.673 -3.547 5.504 C-6.813 4.833 -9.919 4.907 -13.25 4.938 C-13.882 4.942 -13.882 4.942 -17.078 4.965 C-18.042 4.976 -19.007 4.988 -20 5 C-19.426 7.871 -19.426 7.871 -18 11 C-14.918 12.285 -14.918 12.285 -11.188 13.062 C-5.571 14.252 -2.717 15.554 1 20 C2.433 23.403 2.012 24.954 1.062 28.562 C-0.709 32.218 -3.003 33.778 -6.695 35.34 C-13.822 37.381 -19.701 36.195 -26.285 33.07 C-28 32 -28 32 -29 30 C-28.062 27.375 -28.062 27.375 -27 25 C-26.113 25.495 -25.226 25.99 -24.312 26.5 C-18.823 28.916 -12.869 28.238 -7 28 C-7 26.02 -7 24.04 -7 22 C-7.722 21.862 -8.444 21.724 -9.188 21.582 C-23.051 18.713 -23.051 18.713 -27 14 C-28.376 9.96 -28.209 6.791 -27.125 2.688 C-21.211 -4.792 -7.57 -5.046 0 0 Z " fill="#363334" transform="translate(304,72)"/>
<path d="M0 0 C11.22 0 22.44 0 34 0 C34 2.97 34 5.94 34 9 C30.04 9 26.08 9 22 9 C22 18.24 22 27.48 22 37 C18.37 37 14.74 37 11 37 C11 27.76 11 18.52 11 9 C7.37 9 3.74 9 0 9 C0 6.03 0 3.06 0 0 Z " fill="#363334" transform="translate(353,238)"/>
<path d="M0 0 C10.89 0 21.78 0 33 0 C33 2.97 33 5.94 33 9 C29.37 9 25.74 9 22 9 C22 18.24 22 27.48 22 37 C18.37 37 14.74 37 11 37 C11 27.76 11 18.52 11 9 C7.37 9 3.74 9 0 9 C0 6.03 0 3.06 0 0 Z " fill="#363334" transform="translate(55,128)"/>
<path d="M0 0 C3.96 0 7.92 0 12 0 C12 8.91 12 17.82 12 27 C16.95 27 21.9 27 27 27 C27 30.3 27 33.6 27 37 C18.09 37 9.18 37 0 37 C0 24.79 0 12.58 0 0 Z " fill="#363334" transform="translate(544,238)"/>
<path d="M0 0 C3.96 0 7.92 0 12 0 C12 8.91 12 17.82 12 27 C16.95 27 21.9 27 27 27 C27 30.3 27 33.6 27 37 C18.09 37 9.18 37 0 37 C0 24.79 0 12.58 0 0 Z " fill="#363334" transform="translate(670,180)"/>
<path d="M0 0 C3.96 0 7.92 0 12 0 C12 8.91 12 17.82 12 27 C16.95 27 21.9 27 27 27 C27 30.3 27 33.6 27 37 C18.09 37 9.18 37 0 37 C0 24.79 0 12.58 0 0 Z " fill="#363435" transform="translate(671,128)"/>
<path d="M0 0 C8.91 0 17.82 0 27 0 C27 1.98 27 3.96 27 6 C20.4 6 13.8 6 7 6 C7 8.97 7 11.94 7 15 C12.61 15 18.22 15 24 15 C24 16.98 24 18.96 24 21 C18.39 21 12.78 21 7 21 C7 23.97 7 26.94 7 30 C13.6 30 20.2 30 27 30 C27 31.98 27 33.96 27 36 C18.09 36 9.18 36 0 36 C0 24.12 0 12.24 0 0 Z " fill="#363334" transform="translate(1239,103)"/>
<path d="M0 0 C0 5.28 0 10.56 0 16 C-3.907 16.977 -7.814 17.954 -11.722 18.93 C-12.633 19.158 -13.545 19.386 -14.484 19.621 C-15.407 19.852 -16.329 20.082 -17.279 20.32 C-18.177 20.544 -19.075 20.769 -20 21 C-22.376 21.594 -24.753 22.188 -27.129 22.782 C-27.829 22.957 -28.529 23.132 -29.25 23.312 C-31.5 23.875 -33.75 24.438 -36 25 C-36.054 22.375 -36.094 19.751 -36.125 17.125 C-36.142 16.379 -36.159 15.632 -36.176 14.863 C-36.193 12.908 -36.103 10.953 -36 9 C-33.15 6.15 -29.818 5.853 -26 5 C-24.182 4.571 -22.365 4.141 -20.547 3.711 C-18.615 3.265 -16.683 2.819 -14.75 2.375 C-14.26 2.26 -14.26 2.26 -11.781 1.68 C-11.309 1.571 -11.309 1.571 -8.922 1.023 C-8.072 0.827 -7.222 0.63 -6.347 0.427 C-4 0 -4 0 0 0 Z " fill="#2856A2" transform="translate(1038,0)"/>
<path d="M0 0 C1.103 0.067 2.207 0.134 3.344 0.203 C6.747 0.793 8.761 1.666 11.5 3.75 C11.665 4.245 11.665 4.245 12.5 6.75 C10.85 8.07 9.2 9.39 7.5 10.75 C6.881 10.255 6.262 9.76 5.625 9.25 C1.233 7.142 -2.709 6.893 -7.5 7.75 C-10.846 10.277 -12.18 11.789 -13.5 15.75 C-13.769 20.497 -13.69 24.469 -11.5 28.75 C-7.242 30.929 -3.225 31.18 1.5 30.75 C2.366 30.214 3.233 29.677 4.125 29.125 C6.5 27.75 6.5 27.75 9.25 28.375 C11.5 29.75 11.5 29.75 12.5 32.75 C11.399 33.567 10.294 34.379 9.188 35.188 C8.573 35.64 7.958 36.092 7.324 36.559 C2.799 39.514 -2.298 39.319 -7.5 38.75 C-11.838 37.28 -15.494 35.252 -18.5 31.75 C-18.5 31.09 -18.5 30.43 -18.5 29.75 C-19.16 29.75 -19.82 29.75 -20.5 29.75 C-23.655 23.835 -23.207 17.356 -21.5 11.062 C-18.597 6.255 -14.678 1.711 -9.148 0.039 C-6.033 -0.301 -3.127 -0.219 0 0 Z " fill="#363334" transform="translate(366.5,69.25)"/>
<path d="M0 0 C3.63 0 7.26 0 11 0 C11 8.91 11 17.82 11 27 C16.28 27 21.56 27 27 27 C27 30.3 27 33.6 27 37 C18.09 37 9.18 37 0 37 C0 24.79 0 12.58 0 0 Z " fill="#363434" transform="translate(127,128)"/>
<path d="M0 0 C2.851 -0.234 5.206 -0.417 8 0 C9.75 1.875 9.75 1.875 11 5 C11.303 5.74 11.606 6.48 11.918 7.242 C12.608 8.94 13.285 10.643 13.949 12.352 C15.511 16.289 17.249 20.144 19 24 C20.587 21.619 21.649 19.655 22.75 17.062 C25.276 11.263 28.138 5.639 31 0 C33.64 0 36.28 0 39 0 C33.129 15.03 33.129 15.03 29.938 21.094 C28.389 24.243 27.175 27.523 25.93 30.801 C25 33 25 33 23 36 C21.055 36.293 21.055 36.293 18.875 36.188 C17.596 36.126 16.318 36.064 15 36 C12.024 30.391 9.61 24.636 7.296 18.731 C5.336 13.758 3.178 8.903 0.883 4.074 C0 2 0 2 0 0 Z " fill="#363334" transform="translate(1195,103)"/>
<path d="M0 0 C3.96 0 7.92 0 12 0 C12 12.21 12 24.42 12 37 C8.04 37 4.08 37 0 37 C0 24.79 0 12.58 0 0 Z " fill="#373335" transform="translate(280,296)"/>
<path d="M0 0 C3.96 0 7.92 0 12 0 C12 12.21 12 24.42 12 37 C8.04 37 4.08 37 0 37 C0 24.79 0 12.58 0 0 Z " fill="#373335" transform="translate(139,238)"/>
<path d="M0 0 C3.96 0 7.92 0 12 0 C12 12.21 12 24.42 12 37 C8.04 37 4.08 37 0 37 C0 24.79 0 12.58 0 0 Z " fill="#373335" transform="translate(527,180)"/>
<path d="M0 0 C3.96 0 7.92 0 12 0 C12 12.21 12 24.42 12 37 C8.04 37 4.08 37 0 37 C0 24.79 0 12.58 0 0 Z " fill="#373435" transform="translate(559,128)"/>
<path d="M0 0 C3.96 0 7.92 0 12 0 C12 12.21 12 24.42 12 37 C8.04 37 4.08 37 0 37 C0 24.79 0 12.58 0 0 Z " fill="#373435" transform="translate(157,128)"/>
<path d="M0 0 C2.537 -0.062 5.074 -0.124 7.688 -0.188 C8.477 -0.215 9.267 -0.242 10.081 -0.27 C14.571 -0.323 17.517 0.088 21 3 C21.435 6.481 21.109 8.673 20 12 C20.33 12.495 20.33 12.495 22 15 C21.812 18.562 21.812 18.562 21 22 C17.899 24.067 17.271 24.245 13.77 24.195 C13.046 24.19 12.323 24.185 11.577 24.18 C10.665 24.162 9.753 24.144 8.812 24.125 C5.904 24.084 2.996 24.043 0 24 C0 16.08 0 8.16 0 0 Z M6 5 C6 6.32 6 7.64 6 9 C8.64 9 11.28 9 14 9 C13.67 7.68 13.34 6.36 13 5 C10.69 5 8.38 5 6 5 Z M6 15 C6 16.65 6 18.3 6 20 C11.625 20.25 11.625 20.25 15 18 C15 17.01 15 16.02 15 15 C12.03 15 9.06 15 6 15 Z " fill="#363334" transform="translate(1366,276)"/>
<path d="M0 0 C10.56 0 21.12 0 32 0 C32 1.98 32 3.96 32 6 C27.71 6 23.42 6 19 6 C19 16.23 19 26.46 19 37 C16.69 37 14.38 37 12 37 C12 26.77 12 16.54 12 6 C8.04 6 4.08 6 0 6 C0 4.02 0 2.04 0 0 Z " fill="#363334" transform="translate(454,70)"/>
<path d="M0 0 C3.63 0 7.26 0 11 0 C11 12.21 11 24.42 11 37 C7.37 37 3.74 37 0 37 C0 24.79 0 12.58 0 0 Z " fill="#373435" transform="translate(656,238)"/>
<path d="M0 0 C3.63 0 7.26 0 11 0 C11 12.21 11 24.42 11 37 C7.37 37 3.74 37 0 37 C0 24.79 0 12.58 0 0 Z " fill="#373335" transform="translate(270,238)"/>
<path d="M0 0 C3.63 0 7.26 0 11 0 C11 12.21 11 24.42 11 37 C7.37 37 3.74 37 0 37 C0 24.79 0 12.58 0 0 Z " fill="#373335" transform="translate(583,180)"/>
<path d="M0 0 C3.63 0 7.26 0 11 0 C11 12.21 11 24.42 11 37 C7.37 37 3.74 37 0 37 C0 24.79 0 12.58 0 0 Z " fill="#373435" transform="translate(417,180)"/>
<path d="M0 0 C3.63 0 7.26 0 11 0 C11 12.21 11 24.42 11 37 C7.37 37 3.74 37 0 37 C0 24.79 0 12.58 0 0 Z " fill="#373435" transform="translate(613,128)"/>
<path d="M0 0 C3.63 0 7.26 0 11 0 C11 12.21 11 24.42 11 37 C7.37 37 3.74 37 0 37 C0 24.79 0 12.58 0 0 Z " fill="#373435" transform="translate(510,128)"/>
<path d="M0 0 C3.63 0 7.26 0 11 0 C11 12.21 11 24.42 11 37 C7.37 37 3.74 37 0 37 C0 24.79 0 12.58 0 0 Z " fill="#373335" transform="translate(327,128)"/>
<path d="M0 0 C3.63 0 7.26 0 11 0 C11 12.21 11 24.42 11 37 C7.37 37 3.74 37 0 37 C0 24.79 0 12.58 0 0 Z " fill="#373435" transform="translate(0,128)"/>
<path d="M0 0 C3.094 2.376 4.684 5.162 6.062 8.812 C5.971 13.487 4.531 17.088 2 21 C-2.569 24.506 -7.439 24.578 -13 24 C-13.66 23.67 -14.32 23.34 -15 23 C-15 22.34 -15 21.68 -15 21 C-15.99 21 -16.98 21 -18 21 C-21.119 17.932 -21.457 15.341 -21.5 11.062 C-21.385 6.951 -21.245 5.372 -18.938 1.875 C-12.605 -2.167 -6.917 -2.953 0 0 Z M-14 6 C-14.939 9.251 -15.102 11.491 -14.438 14.812 C-13 17 -13 17 -10.188 18 C-6.488 18 -4.933 17.179 -2 15 C-1.67 14.67 -1.34 14.34 -1 14 C-1.349 7.721 -1.349 7.721 -3.75 5.062 C-7.921 3.093 -10.198 3.465 -14 6 Z " fill="#363334" transform="translate(1433,316)"/>
<path d="M0 0 C2.599 -0.021 5.197 -0.041 7.875 -0.062 C8.692 -0.072 9.509 -0.081 10.351 -0.09 C15.778 -0.111 15.778 -0.111 18 1 C18 1.66 18 2.32 18 3 C18.99 3.33 19.98 3.66 21 4 C21.081 5.603 21.139 7.208 21.188 8.812 C21.205 9.259 21.205 9.259 21.293 11.52 C20.951 14.416 20.246 15.226 18 17 C19.32 19.31 20.64 21.62 22 24 C18.75 24.312 18.75 24.312 15 24 C12.812 21.562 12.812 21.562 11 19 C8.75 18.188 8.75 18.188 7 18 C7 19.98 7 21.96 7 24 C4.69 24 2.38 24 0 24 C0 16.08 0 8.16 0 0 Z M7 5 C7 7.31 7 9.62 7 12 C12.75 12.125 12.75 12.125 15 11 C14.67 9.35 14.34 7.7 14 6 C11.69 5.67 9.38 5.34 7 5 Z " fill="#353233" transform="translate(1314,276)"/>
<path d="M0 0 C16.756 -0.155 16.756 -0.155 19.75 2.625 C21.516 5.98 21.46 8.258 21 12 C19 14.938 19 14.938 17 17 C17.66 17.763 18.32 18.526 19 19.312 C21 22 21 22 21 25 C17.75 25.375 17.75 25.375 14 25 C11.812 22.062 11.812 22.062 10 19 C7.75 18.125 7.75 18.125 6 18 C6 20.31 6 22.62 6 25 C4.02 25 2.04 25 0 25 C0 16.75 0 8.5 0 0 Z M6 5 C6 7.31 6 9.62 6 12 C8.31 12 10.62 12 13 12 C13.33 10.35 13.66 8.7 14 7 C10.772 4.848 9.716 4.799 6 5 Z " fill="#353334" transform="translate(1389,315)"/>
<path d="M0 0 C4.616 0.617 6.226 1.893 9.184 5.426 C10.737 10.085 10.687 14.54 9.434 19.238 C7.888 21.943 6.977 22.993 4.184 24.426 C-2.335 25.928 -7.342 25.586 -13.129 21.988 C-15.289 19.988 -15.738 18.233 -16.02 15.34 C-16.119 10.491 -15.949 7.371 -12.816 3.426 C-12.417 2.897 -12.017 2.369 -11.605 1.824 C-8.229 -0.815 -4.11 -0.087 0 0 Z M-8.816 7.426 C-9.729 11.285 -10.078 13.642 -8.816 17.426 C-5.816 19.426 -5.816 19.426 -2.316 19.301 C1.184 18.426 1.184 18.426 3.184 16.676 C4.497 13.72 4.315 12.442 3.184 9.426 C1.371 7.113 1.371 7.113 -0.816 5.426 C-6.295 5.426 -6.295 5.426 -8.816 7.426 Z " fill="#353233" transform="translate(1478.81640625,275.57421875)"/>
<path d="M0 0 C5 1 5 1 6.949 3.723 C7.236 4.274 7.236 4.274 8.688 7.062 C9.743 9.068 10.836 11.056 12 13 C12.66 13 13.32 13 14 13 C14.66 11.68 15.32 10.36 16 9 C16.66 9 17.32 9 18 9 C18.103 8.443 18.206 7.886 18.312 7.312 C19.157 4.47 20.219 2.375 22 0 C23.32 0 24.64 0 26 0 C26 8.25 26 16.5 26 25 C24.68 25 23.36 25 22 25 C21.67 20.38 21.34 15.76 21 11 C20.092 12.65 19.185 14.3 18.25 16 C16.703 18.812 16.703 18.812 15 21 C13.68 21 12.36 21 11 21 C9.35 18.03 7.7 15.06 6 12 C5.67 16.29 5.34 20.58 5 25 C3.35 25 1.7 25 0 25 C0 16.75 0 8.5 0 0 Z " fill="#353233" transform="translate(1253,315)"/>
<path d="M0 0 C1.65 0 3.3 0 5 0 C5.398 0.843 5.797 1.686 6.207 2.555 C6.737 3.65 7.267 4.746 7.812 5.875 C8.335 6.966 8.857 8.056 9.395 9.18 C11 12 11 12 14 14 C14.205 13.62 14.205 13.62 15.242 11.699 C15.781 10.705 16.32 9.711 16.875 8.688 C17.409 7.701 17.942 6.715 18.492 5.699 C20 3 20 3 22 0 C23.32 0 24.64 0 26 0 C26 7.92 26 15.84 26 24 C24.68 24 23.36 24 22 24 C21.835 21.855 21.835 21.855 21 11 C20.01 12.65 20.01 12.65 15 21 C10 20 10 20 8.637 18.152 C7.758 16.102 6.879 14.051 6 12 C5.67 15.96 5.34 19.92 5 24 C3.35 24 1.7 24 0 24 C0 16.08 0 8.16 0 0 Z " fill="#353233" transform="translate(1253,276)"/>
<path d="M0 0 C3.788 3.329 4.938 5.696 5.5 10.75 C5.348 14.979 3.811 17.579 1.062 20.812 C0.402 20.812 -0.257 20.812 -0.938 20.812 C-0.938 21.473 -0.938 22.132 -0.938 22.812 C1.043 22.812 3.023 22.812 5.062 22.812 C5.392 23.473 5.723 24.132 6.062 24.812 C4.062 27.812 4.062 27.812 2.074 28.246 C-3.395 28.255 -5.796 27.618 -9.938 23.812 C-11.921 23.098 -13.921 22.426 -15.938 21.812 C-19.387 19.513 -19.836 18.712 -20.938 14.812 C-21.425 10.661 -21.321 7.649 -19.562 3.812 C-19.026 3.152 -18.49 2.493 -17.938 1.812 C-17.277 1.812 -16.618 1.812 -15.938 1.812 C-15.938 1.152 -15.938 0.493 -15.938 -0.188 C-10.723 -1.926 -5.12 -2.07 0 0 Z M-14.938 4.812 C-16.754 7.355 -16.944 8.654 -16.812 11.812 C-15.771 15.385 -15.041 16.743 -11.938 18.812 C-9.157 19.372 -6.717 19.378 -3.938 18.812 C-1.191 16.911 -0.223 15.49 1.062 12.438 C1.062 8.629 -0.614 6.733 -2.938 3.812 C-7.163 1.7 -11.134 2.277 -14.938 4.812 Z " fill="#353233" transform="translate(1157.9375,277.1875)"/>
<path d="M0 0 C1.98 0 3.96 0 6 0 C6 2.97 6 5.94 6 9 C9.3 9 12.6 9 16 9 C16 6.03 16 3.06 16 0 C17.98 0 19.96 0 22 0 C22 7.92 22 15.84 22 24 C20.02 24 18.04 24 16 24 C16 21.03 16 18.06 16 15 C12.7 15 9.4 15 6 15 C6 17.97 6 20.94 6 24 C4.02 24 2.04 24 0 24 C0 16.08 0 8.16 0 0 Z " fill="#363334" transform="translate(1437,276)"/>
<path d="M0 0 C1.98 0 3.96 0 6 0 C6.049 1.048 6.098 2.096 6.148 3.176 C6.223 4.555 6.299 5.934 6.375 7.312 C6.406 8.003 6.437 8.693 6.469 9.404 C6.681 13.07 6.919 14.879 9 18 C10.98 18 12.96 18 15 18 C15 12.06 15 6.12 15 0 C17.31 0 19.62 0 22 0 C22.19 3.045 22.328 6.077 22.438 9.125 C22.496 9.981 22.555 10.837 22.615 11.719 C22.783 17.945 22.783 17.945 20.56 20.941 C17.379 23.82 15.118 25.354 10.75 25.438 C7 25 7 25 4 24 C4 23.34 4 22.68 4 22 C3.01 21.67 2.02 21.34 1 21 C0.078 18.234 -0.118 16.617 -0.098 13.77 C-0.096 13.368 -0.096 13.368 -0.088 11.338 C-0.08 10.505 -0.071 9.671 -0.062 8.812 C-0.058 7.968 -0.053 7.123 -0.049 6.252 C-0.037 4.168 -0.019 2.084 0 0 Z " fill="#363334" transform="translate(1362,315)"/>
<path d="M0 0 C3.039 2.098 4.252 3.381 5.625 6.812 C6.173 11.742 6.168 13.802 3.812 18.188 C1.625 20.812 1.625 20.812 -1.375 22.812 C1.292 24.146 2.792 23.484 5.625 22.812 C5.625 24.132 5.625 25.452 5.625 26.812 C2.601 28.325 -0.037 27.985 -3.375 27.812 C-5.812 26.812 -5.812 26.812 -7.375 25.812 C-7.375 25.152 -7.375 24.493 -7.375 23.812 C-8.262 23.73 -9.149 23.647 -10.062 23.562 C-14.469 22.565 -16.988 20.662 -19.688 17.062 C-21.267 11.892 -21.063 8.139 -18.625 3.438 C-13.59 -2.436 -6.989 -2.459 0 0 Z M-14.375 4.812 C-16.264 7.331 -16.382 8.641 -16.25 11.812 C-15.226 15.324 -14.32 16.663 -11.375 18.812 C-8.438 19.812 -8.438 19.812 -5.375 19.812 C-1.997 17.74 0.457 15.665 1.625 11.812 C1.285 8.324 0.606 6.784 -1.375 3.812 C-3.398 3.23 -3.398 3.23 -5.75 3 C-6.135 2.956 -6.135 2.956 -8.086 2.73 C-10.711 2.825 -12.161 3.428 -14.375 4.812 Z " fill="#353233" transform="translate(1157.375,316.1875)"/>
<path d="M0 0 C2.31 0 4.62 0 7 0 C7.33 5.94 7.66 11.88 8 18 C9.98 18 11.96 18 14 18 C16.401 14.398 16.438 11.491 16.625 7.312 C16.664 6.611 16.702 5.909 16.742 5.186 C16.836 3.457 16.919 1.729 17 0 C18.98 0 20.96 0 23 0 C23.054 2.729 23.094 5.458 23.125 8.188 C23.133 8.572 23.133 8.572 23.176 10.518 C23.212 14.783 23.089 18.157 21 22 C17.376 25.185 13.818 25.577 9.152 25.422 C4.989 24.606 3.133 21.674 0.879 18.344 C-0.428 14.86 -0.209 11.414 -0.125 7.75 C-0.116 7.005 -0.107 6.26 -0.098 5.492 C-0.074 3.661 -0.038 1.831 0 0 Z " fill="#363334" transform="translate(1314,315)"/>
<path d="M0 0 C2.31 0 4.62 0 7 0 C15.069 15.543 15.069 15.543 17 24 C14.69 24 12.38 24 10 24 C9.776 23.355 9.551 22.711 9.32 22.047 C8 20 8 20 5.617 19.391 C5.165 19.367 5.165 19.367 2.875 19.25 C1.965 19.193 1.055 19.137 0.117 19.078 C-0.232 19.065 -0.232 19.065 -2 19 C-2.33 20.65 -2.66 22.3 -3 24 C-5.31 24 -7.62 24 -10 24 C-8.026 15.511 -3.917 7.741 0 0 Z M3 8 C2.34 9.98 1.68 11.96 1 14 C2.65 14 4.3 14 6 14 C5.34 12.02 4.68 10.04 4 8 C3.67 8 3.34 8 3 8 Z " fill="#363334" transform="translate(1398,276)"/>
<path d="M0 0 C2.31 0 4.62 0 7 0 C9.824 5.346 12.072 10.681 14.07 16.387 C14.983 18.953 15.973 21.477 17 24 C14.69 24 12.38 24 10 24 C9.34 22.35 8.68 20.7 8 19 C4.7 19 1.4 19 -2 19 C-2.33 20.65 -2.66 22.3 -3 24 C-5.31 24 -7.62 24 -10 24 C-9.384 20.244 -8.297 17.131 -6.688 13.688 C-6.244 12.736 -5.801 11.785 -5.344 10.805 C-3.607 7.179 -1.825 3.582 0 0 Z M3 8 C2.01 9.98 1.02 11.96 0 14 C1.98 14 3.96 14 6 14 C5.34 12.02 4.68 10.04 4 8 C3.67 8 3.34 8 3 8 Z " fill="#363334" transform="translate(1347,276)"/>
<path d="M0 0 C9.9 0 19.8 0 30 0 C27.146 2.854 24.423 4.888 21 7 C20.34 7 19.68 7 19 7 C19 7.66 19 8.32 19 9 C18.466 9.291 17.933 9.583 17.383 9.883 C11.501 13.119 5.742 16.523 0 20 C0 13.4 0 6.8 0 0 Z " fill="#007643" transform="translate(1466,153)"/>
<path d="M0 0 C2.64 0 5.28 0 8 0 C8 12.21 8 24.42 8 37 C5.36 37 2.72 37 0 37 C0 24.79 0 12.58 0 0 Z " fill="#363434" transform="translate(659,296)"/>
<path d="M0 0 C2.64 0 5.28 0 8 0 C8 12.21 8 24.42 8 37 C5.36 37 2.72 37 0 37 C0 24.79 0 12.58 0 0 Z " fill="#363334" transform="translate(566,70)"/>
<path d="M0 0 C5.94 0 11.88 0 18 0 C18 1.65 18 3.3 18 5 C14.04 5 10.08 5 6 5 C6 6.65 6 8.3 6 10 C9.63 10 13.26 10 17 10 C17 11.98 17 13.96 17 16 C13.37 16 9.74 16 6 16 C6 18.97 6 21.94 6 25 C4.02 25 2.04 25 0 25 C0 16.75 0 8.5 0 0 Z " fill="#363334" transform="translate(1294,315)"/>
<path d="M0 0 C5.94 0 11.88 0 18 0 C18 1.32 18 2.64 18 4 C13.71 4 9.42 4 5 4 C5 5.98 5 7.96 5 10 C8.96 10 12.92 10 17 10 C16.67 11.32 16.34 12.64 16 14 C12.37 14 8.74 14 5 14 C5 16.31 5 18.62 5 21 C9.29 21 13.58 21 18 21 C18 22.32 18 23.64 18 25 C12.06 25 6.12 25 0 25 C0 16.75 0 8.5 0 0 Z " fill="#343132" transform="translate(1231,315)"/>
<path d="M0 0 C5.94 0 11.88 0 18 0 C18 1.32 18 2.64 18 4 C13.71 4 9.42 4 5 4 C5 5.98 5 7.96 5 10 C8.96 10 12.92 10 17 10 C17 11.32 17 12.64 17 14 C13.04 14 9.08 14 5 14 C5 15.98 5 17.96 5 20 C9.29 20 13.58 20 18 20 C18 21.32 18 22.64 18 24 C12.06 24 6.12 24 0 24 C0 16.08 0 8.16 0 0 Z " fill="#363334" transform="translate(1231,276)"/>
<path d="M0 0 C1.65 0 3.3 0 5 0 C5.471 1.013 5.941 2.026 6.426 3.07 C7.055 4.422 7.684 5.773 8.312 7.125 C8.467 7.458 8.467 7.458 9.248 9.141 C9.554 9.798 9.86 10.455 10.176 11.133 C10.48 11.787 10.783 12.441 11.096 13.114 C11.927 14.847 12.826 16.547 13.73 18.242 C15 21 15 21 15 25 C13.68 25 12.36 25 11 25 C9 22 9 22 9 19 C4.71 19 0.42 19 -4 19 C-4.66 20.98 -5.32 22.96 -6 25 C-7.32 25 -8.64 25 -10 25 C-9.467 19.09 -7.016 14.369 -4.438 9.125 C-4.013 8.246 -3.588 7.367 -3.15 6.461 C-2.107 4.304 -1.057 2.15 0 0 Z M2 6 C1.34 7.485 1.34 7.485 -2 15 C0.64 15 3.28 15 6 15 C5.01 12.03 4.02 9.06 3 6 C2.67 6 2.34 6 2 6 Z " fill="#353233" transform="translate(1122,315)"/>
<path d="M0 0 C1.65 0 3.3 0 5 0 C5.049 1.276 5.098 2.552 5.148 3.867 C5.223 5.536 5.299 7.206 5.375 8.875 C5.406 9.717 5.437 10.559 5.469 11.426 C5.507 12.231 5.546 13.037 5.586 13.867 C5.617 14.611 5.649 15.354 5.681 16.121 C6 18 6 18 8 20 C10.5 20.25 10.5 20.25 13 20 C16.674 16.326 16.238 11.764 16.562 6.75 C16.646 5.487 16.73 4.223 16.816 2.922 C16.847 2.44 16.847 2.44 17 0 C18.32 0 19.64 0 21 0 C21.054 2.917 21.094 5.833 21.125 8.75 C21.133 9.163 21.133 9.163 21.176 11.25 C21.182 12.049 21.189 12.848 21.195 13.672 C21.206 14.405 21.216 15.138 21.227 15.894 C20.968 18.299 20.192 19.913 19 22 C18.34 22 17.68 22 17 22 C17 22.66 17 23.32 17 24 C12.477 25.508 8.65 25.66 4.188 23.875 C1.032 21.17 0.169 18.144 -0.156 14.012 C-0.196 11.879 -0.175 9.757 -0.125 7.625 C-0.116 6.889 -0.107 6.153 -0.098 5.395 C-0.074 3.596 -0.038 1.798 0 0 Z " fill="#353233" transform="translate(1166,315)"/>
<path d="M0 0 C1.65 0 3.3 0 5 0 C5.061 1.288 5.121 2.576 5.184 3.902 C5.268 5.581 5.353 7.259 5.438 8.938 C5.477 9.788 5.516 10.638 5.557 11.514 C5.599 12.323 5.64 13.131 5.684 13.965 C5.72 14.714 5.757 15.463 5.795 16.234 C6 18 6 18 7 19 C9.671 19.141 12.324 19.042 15 19 C15.933 14.901 16.288 10.88 16.562 6.688 C16.646 5.433 16.73 4.179 16.816 2.887 C16.847 2.41 16.847 2.41 17 0 C18.32 0 19.64 0 21 0 C21.081 2.896 21.141 5.791 21.188 8.688 C21.213 9.504 21.238 10.321 21.264 11.162 C21.321 15.914 21.205 19.203 18 23 C13.113 25.068 9.087 25.632 4 24 C0.072 18.609 -0.542 14.616 -0.25 8.062 C-0.232 7.283 -0.214 6.504 -0.195 5.701 C-0.149 3.8 -0.077 1.9 0 0 Z " fill="#363334" transform="translate(1166,276)"/>
<path d="M0 0 C6.93 0 13.86 0 21 0 C21 1.65 21 3.3 21 5 C18.69 5 16.38 5 14 5 C14 11.6 14 18.2 14 25 C11.69 25 9.38 25 7 25 C7 18.4 7 11.8 7 5 C4.69 5 2.38 5 0 5 C0 3.35 0 1.7 0 0 Z " fill="#363334" transform="translate(1339,315)"/>
<path d="M0 0 C1.65 0 3.3 0 5 0 C6.107 2.186 7.21 4.374 8.312 6.562 C8.467 6.867 8.467 6.867 9.248 8.408 C15 19.852 15 19.852 15 24 C12.625 23.812 12.625 23.812 10 23 C9.34 21.35 8.68 19.7 8 18 C4.37 18.33 0.74 18.66 -3 19 C-3.33 19.825 -3.33 19.825 -5 24 C-6.65 24 -8.3 24 -10 24 C-8.813 19.251 -7.206 15.19 -4.945 10.852 C-3.808 8.623 -2.906 6.331 -2 4 C-1.348 2.659 -0.686 1.323 0 0 Z M2 6 C1.34 7.485 1.34 7.485 -2 15 C0.64 15 3.28 15 6 15 C4.25 8.25 4.25 8.25 2 6 Z " fill="#353233" transform="translate(1122,276)"/>
<path d="M0 0 C6.93 0 13.86 0 21 0 C21 1.65 21 3.3 21 5 C18.69 5 16.38 5 14 5 C14 11.27 14 17.54 14 24 C11.69 24 9.38 24 7 24 C7 17.73 7 11.46 7 5 C4.69 5 2.38 5 0 5 C0 3.35 0 1.7 0 0 Z " fill="#363333" transform="translate(1291,276)"/>
<path d="M0 0 C1.98 0 3.96 0 6 0 C6 6.27 6 12.54 6 19 C9.96 19 13.92 19 18 19 C18 20.65 18 22.3 18 24 C12.06 24 6.12 24 0 24 C0 16.08 0 8.16 0 0 Z " fill="#363334" transform="translate(1417,276)"/>
<path d="M0 0 C6.93 0 13.86 0 21 0 C21 1.32 21 2.64 21 4 C18.36 4 15.72 4 13 4 C13 10.93 13 17.86 13 25 C11.35 25 9.7 25 8 25 C8 18.07 8 11.14 8 4 C5.36 4 2.72 4 0 4 C0 2.68 0 1.36 0 0 Z " fill="#363334" transform="translate(1208,315)"/>
<path d="M0 0 C6.93 0 13.86 0 21 0 C21 1.32 21 2.64 21 4 C18.36 4 15.72 4 13 4 C13 10.6 13 17.2 13 24 C11.35 24 9.7 24 8 24 C8 17.4 8 10.8 8 4 C5.36 4 2.72 4 0 4 C0 2.68 0 1.36 0 0 Z " fill="#363334" transform="translate(1208,276)"/>
<path d="M0 0 C0.797 0.018 1.595 0.036 2.416 0.055 C4.382 0.102 6.347 0.174 8.312 0.25 C7.578 6.992 7.578 6.992 5.188 9.312 C1.325 10.572 -0.951 9.642 -4.688 8.25 C-4.688 8.91 -4.688 9.57 -4.688 10.25 C-6.998 10.25 -9.308 10.25 -11.688 10.25 C-11.896 7.188 -11.973 4.895 -10.719 2.062 C-7.495 -0.814 -4.157 -0.177 0 0 Z " fill="#363334" transform="translate(512.6875,282.75)"/>
<path d="M0 0 C1.77 -0.081 3.541 -0.139 5.312 -0.188 C6.299 -0.222 7.285 -0.257 8.301 -0.293 C11 0 11 0 12.781 1.312 C14.498 3.69 15.192 6.203 16 9 C14.721 9.062 13.442 9.124 12.125 9.188 C11.406 9.222 10.686 9.257 9.945 9.293 C9.303 9.196 8.661 9.1 8 9 C7.34 8.01 6.68 7.02 6 6 C5.01 6.33 4.02 6.66 3 7 C3 7.66 3 8.32 3 9 C0.36 9 -2.28 9 -5 9 C-3.35 6.03 -1.7 3.06 0 0 Z " fill="#363334" transform="translate(166,227)"/>
<path d="M0 0 C3.057 0.04 4.599 0.065 6.957 2.059 C10.188 6.537 10.188 6.537 10.188 9.562 C8.909 9.624 7.63 9.686 6.312 9.75 C5.593 9.785 4.874 9.82 4.133 9.855 C3.491 9.759 2.849 9.662 2.188 9.562 C1.528 8.573 0.868 7.582 0.188 6.562 C0.023 6.81 0.023 6.81 -0.812 8.062 C-3.988 10.444 -6.915 9.754 -10.812 9.562 C-5.646 0.262 -5.646 0.262 0 0 Z " fill="#363334" transform="translate(228.8125,116.4375)"/>
<path d="M0 0 C3.5 -0.375 3.5 -0.375 7 0 C9 3 9 3 8.875 5.812 C7.82 9.655 6.683 12.035 4 15 C0.25 15.375 0.25 15.375 -3 15 C-2.34 13.02 -1.68 11.04 -1 9 C-1.33 8.67 -1.66 8.34 -2 8 C-2.294 4.278 -2.148 3.222 0 0 Z " fill="#363334" transform="translate(702,207)"/>
<path d="M0 0 C2.625 0.562 2.625 0.562 5 2 C6.833 6.277 5.466 9.756 4 14 C3.375 15.354 2.728 16.699 2 18 C0.35 18 -1.3 18 -3 18 C-2.916 17.362 -2.832 16.724 -2.746 16.066 C-2.644 15.24 -2.542 14.414 -2.438 13.562 C-2.333 12.739 -2.229 11.915 -2.121 11.066 C-2.081 10.384 -2.041 9.703 -2 9 C-2.33 8.67 -2.66 8.34 -3 8 C-3.25 5.062 -3.25 5.062 -3 2 C-2.01 1.34 -1.02 0.68 0 0 Z " fill="#363334" transform="translate(704,156)"/>
<path d="M0 0 C2.625 0.562 2.625 0.562 5 2 C6.233 4.619 6.211 6.268 5.414 9.035 C4.412 11.769 3.302 14.396 2 17 C0.35 17 -1.3 17 -3 17 C-2.707 14.949 -2.414 12.898 -2.121 10.848 C-2.081 10.238 -2.041 9.628 -2 9 C-2.33 8.67 -2.66 8.34 -3 8 C-3.25 5.062 -3.25 5.062 -3 2 C-2.01 1.34 -1.02 0.68 0 0 Z " fill="#363334" transform="translate(331,266)"/>
<path d="M0 0 C1.32 0 2.64 0 4 0 C4 8.25 4 16.5 4 25 C2.68 25 1.36 25 0 25 C0 16.75 0 8.5 0 0 Z " fill="#363334" transform="translate(1193,315)"/>
<path d="M0 0 C1.32 0 2.64 0 4 0 C4 7.92 4 15.84 4 24 C2.68 24 1.36 24 0 24 C0 16.08 0 8.16 0 0 Z " fill="#363334" transform="translate(1193,276)"/>
<path d="M0 0 C4.95 0 9.9 0 15 0 C15 1.98 15 3.96 15 6 C10.05 6 5.1 6 0 6 C0 4.02 0 2.04 0 0 Z " fill="#363334" transform="translate(590,315)"/>
<path d="M0 0 C1.32 0 2.64 0 4 0 C4 1.98 4 3.96 4 6 C2.68 5.67 1.36 5.34 0 5 C-0.562 3.062 -0.562 3.062 -1 1 C-0.67 0.67 -0.34 0.34 0 0 Z " fill="#312F30" transform="translate(1440,334)"/>
<path d="M0 0 C0 1.32 0 2.64 0 4 C-1.98 4 -3.96 4 -6 4 C-6 2.68 -6 1.36 -6 0 C-3.509 -1.245 -2.589 -0.777 0 0 Z " fill="#343132" transform="translate(1496,296)"/>
</svg>
