<?xml version="1.0" encoding="UTF-8"?>
<svg width="194" height="60" viewBox="0 0 194 60" fill="none" xmlns="http://www.w3.org/2000/svg" style="background: transparent;">
<path d="M31.2826 58.9226C31.2826 59.5175 30.797 60 30.1981 60C29.5992 60 29.1135 59.5175 29.1135 58.9226V50.1819C29.4726 50.2006 29.8343 50.2105 30.1981 50.2105C30.5618 50.2105 30.9235 50.2006 31.2826 50.1819V58.9226Z" fill="white"/>
<path d="M42.5408 46.0666C42.5444 46.0776 42.5463 46.0892 42.5461 46.1016L42.4399 55.7856C42.4333 56.3868 42.0654 56.9258 41.5056 57.1543C40.9468 57.3822 40.3048 57.2567 39.8747 56.8353L32.9426 50.0434C32.938 50.0389 32.9339 50.0341 32.9302 50.0291C33.8099 49.9118 34.6719 49.739 35.5122 49.5138L37.2831 51.2555C38.4085 52.3622 40.32 51.5821 40.3374 50.009L40.365 47.509C41.1225 47.074 41.8491 46.5919 42.5408 46.0666Z" fill="white"/>
<path d="M17.8741 46.0806C18.5709 46.6085 19.303 47.093 20.0663 47.5294L20.0786 50.007C20.0867 51.5802 21.9937 52.3714 23.1257 51.2713L24.9233 49.524C25.7586 49.7461 26.6153 49.9168 27.4894 50.0324C27.4841 50.0422 27.4774 50.0517 27.4688 50.06L20.5009 56.833C20.0683 57.2535 19.4243 57.3761 18.8659 57.1444C18.3085 56.913 17.944 56.3732 17.9398 55.7731L17.8723 46.101C17.8722 46.0941 17.8729 46.0871 17.8741 46.0806Z" fill="white"/>
<path d="M15.0668 43.5086C15.5504 44.043 16.0624 44.5516 16.6002 45.0321L10.3782 51.2133C9.95474 51.6338 9.26818 51.6339 8.84474 51.2133C8.4213 50.7926 8.42139 50.1105 8.84474 49.6898L15.0668 43.5086Z" fill="white"/>
<path d="M51.5514 49.6898C51.9748 50.1105 51.9748 50.7926 51.5514 51.2133C51.1279 51.6339 50.4414 51.6338 50.0179 51.2133L43.7959 45.0321C44.3338 44.5515 44.8457 44.043 45.3294 43.5086L51.5514 49.6898Z" fill="white"/>
<path d="M10.0367 32.7143C10.1547 33.588 10.3287 34.4443 10.5555 35.279L8.80219 37.0385C7.68807 38.1566 8.4734 40.0559 10.0569 40.0732L12.5734 40.1003C13.0113 40.8528 13.4967 41.5747 14.0253 42.2618C14.0144 42.2653 14.0026 42.2675 13.9901 42.2674L4.2422 42.1618C3.63701 42.1553 3.09444 41.7896 2.86452 41.2334C2.63506 40.6783 2.76138 40.0407 3.18554 39.6135L10.0223 32.7265C10.0268 32.722 10.0317 32.7178 10.0367 32.7143Z" fill="white"/>
<path d="M50.3627 32.6909C50.3725 32.6961 50.3819 32.7028 50.3903 32.7113L57.2079 39.6336C57.6312 40.0633 57.7546 40.7031 57.5213 41.2579C57.2885 41.8115 56.7453 42.1737 56.1413 42.1779L46.4051 42.2449C46.3983 42.245 46.3916 42.2443 46.3852 42.2432C46.9165 41.5509 47.404 40.8236 47.8432 40.0653L50.3371 40.0531C51.9206 40.045 52.7169 38.1505 51.6095 37.026L49.8509 35.2399C50.0745 34.4101 50.2464 33.5592 50.3627 32.6909Z" fill="white"/>
<path d="M9.88321 28.9226C9.86435 29.2793 9.85446 29.6386 9.85445 30C9.85445 30.3614 9.86406 30.7207 9.88292 31.0774H1.08454C0.485644 31.0774 2.7129e-06 30.595 0 30C3.33203e-08 29.405 0.485642 28.9226 1.08454 28.9226H9.88321Z" fill="white"/>
<path d="M59.3116 28.9226C59.9105 28.9226 60.3961 29.405 60.3961 30C60.3961 30.595 59.9105 31.0774 59.3116 31.0774H50.5132C50.5321 30.7207 50.5417 30.3614 50.5417 30C50.5417 29.6386 50.5318 29.2793 50.5129 28.9226H59.3116Z" fill="white"/>
<path d="M14.011 17.7568C13.4796 18.4491 12.9921 19.1764 12.5529 19.9347L10.059 19.9472C8.47541 19.9552 7.679 21.8494 8.78635 22.974L10.5452 24.7601C10.3216 25.5899 10.1497 26.4408 10.0334 27.3091C10.0236 27.3039 10.014 27.2972 10.0056 27.2887L3.18789 20.3664C2.76472 19.9367 2.64128 19.2971 2.8745 18.7424C3.10735 18.1887 3.65076 17.8266 4.25482 17.8224L13.9907 17.7551C13.9976 17.755 14.0045 17.7557 14.011 17.7568Z" fill="white"/>
<path d="M56.1539 17.8382C56.7591 17.8447 57.3017 18.2105 57.5316 18.7666C57.761 19.3217 57.6344 19.9593 57.2103 20.3865L50.3738 27.2735C50.3693 27.2781 50.3644 27.2821 50.3595 27.2857C50.2414 26.4118 50.0671 25.5555 49.8404 24.7207L51.5936 22.9615C52.7077 21.8434 51.9227 19.9444 50.3392 19.9271L47.8224 19.8994C47.3845 19.147 46.8994 18.425 46.3708 17.7379C46.3817 17.7344 46.3936 17.7325 46.406 17.7326L56.1539 17.8382Z" fill="white"/>
<path d="M8.84474 8.78673C9.2682 8.3661 9.95476 8.36613 10.3782 8.78673L16.6002 14.9679C16.0624 15.4484 15.5504 15.957 15.0668 16.4914L8.84474 10.3102C8.42141 9.88947 8.42136 9.2074 8.84474 8.78673Z" fill="white"/>
<path d="M50.0179 8.78673C50.4414 8.36611 51.1279 8.36606 51.5514 8.78673C51.9748 9.20741 51.9748 9.88945 51.5514 10.3102L45.3294 16.4914C44.8457 15.957 44.3338 15.4484 43.7959 14.9679L50.0179 8.78673Z" fill="white"/>
<path d="M18.8905 2.84573C19.4493 2.61783 20.0911 2.74332 20.5211 3.16465L27.4536 9.95656C27.4581 9.96104 27.462 9.96592 27.4656 9.97085C26.586 10.0882 25.7242 10.261 24.8839 10.4862L23.1128 8.74446C21.9873 7.63786 20.0758 8.4179 20.0584 9.99096L20.0308 12.4913C19.2734 12.9263 18.5466 13.4082 17.855 13.9334C17.8515 13.9225 17.8496 13.9107 17.8497 13.8984L17.9559 4.21438C17.9625 3.61317 18.3307 3.07415 18.8905 2.84573Z" fill="white"/>
<path d="M39.8952 3.16727C40.3278 2.7468 40.9715 2.6242 41.53 2.85593C42.0873 3.08727 42.4518 3.62683 42.456 4.22691L42.5238 13.8993C42.5239 13.9061 42.5229 13.9127 42.5218 13.9191C41.825 13.3913 41.0931 12.9069 40.3298 12.4706L40.3172 9.993C40.3091 8.41988 38.4021 7.62858 37.2702 8.72872L35.4726 10.476C34.6372 10.2539 33.7806 10.0832 32.9065 9.96764C32.9117 9.95786 32.9185 9.94858 32.927 9.94024L39.8952 3.16727Z" fill="white"/>
<path d="M30.1981 0C30.797 1.65346e-07 31.2826 0.482457 31.2826 1.07743V9.8181C30.9235 9.79936 30.5618 9.78982 30.1981 9.78982C29.8343 9.78982 29.4726 9.79936 29.1135 9.8181V1.07743C29.1135 0.48246 29.5992 4.92491e-06 30.1981 0Z" fill="white"/>
<path d="M184.727 20C185.59 20.0036 186.412 20.5646 186.777 21.4964L194 39.9634L190.902 39.9855L189.066 35.3901C188.213 33.2621 186.475 32.1091 184.654 32.115C182.838 32.121 181.119 33.2785 180.295 35.3814L178.411 39.9265L175.338 39.9211L182.665 21.4832C183.035 20.5523 183.862 19.9964 184.727 20Z" fill="white"/>
<path d="M171.809 20.0013C172.581 20.0013 173.206 20.6227 173.206 21.3892V39.9165H170.412V21.3892C170.412 20.6227 171.038 20.0014 171.809 20.0013Z" fill="white"/>
<path d="M156.112 39.9113V26.7803C156.112 26.1211 156.65 25.5867 157.314 25.5867C157.977 25.5867 158.515 26.1211 158.515 26.7803V28.3413L158.119 28.1052C158.471 27.2132 159.034 26.5224 159.809 26.0326C160.601 25.5254 161.526 25.4559 162.582 25.4559C163.603 25.4559 164.51 25.6833 165.302 26.138C166.112 26.5928 166.746 27.2224 167.203 28.0269C167.679 28.8315 167.916 29.741 167.916 30.7554V39.9113H165.434V31.5424C165.434 30.7554 165.293 30.0907 165.011 29.5486C164.73 29.0064 164.325 28.5866 163.797 28.2893C163.286 27.9745 162.696 27.8171 162.027 27.8171C161.358 27.8171 160.76 27.9745 160.232 28.2893C159.721 28.5866 159.316 29.0151 159.017 29.5748C158.718 30.117 158.568 30.7729 158.568 31.5424V39.9113H156.112Z" fill="white"/>
<path d="M146.6 40.2262C145.667 40.2262 144.84 40.06 144.118 39.7277C143.414 39.3779 142.859 38.9057 142.454 38.311C142.049 37.6989 141.847 36.9993 141.847 36.2122C141.847 35.4602 142.005 34.7868 142.322 34.1921C142.657 33.58 143.167 33.064 143.854 32.6443C144.558 32.2245 145.438 31.9272 146.495 31.7523L151.776 30.8865V32.9329L147.049 33.7199C146.134 33.8773 145.465 34.1659 145.042 34.5857C144.637 35.0054 144.435 35.5214 144.435 36.1335C144.435 36.7107 144.664 37.1917 145.121 37.5764C145.597 37.9612 146.187 38.1536 146.891 38.1536C147.789 38.1536 148.563 37.97 149.215 37.6027C149.884 37.2179 150.403 36.7019 150.773 36.0548C151.16 35.4077 151.354 34.6906 151.354 33.9035V30.3094C151.354 29.5398 151.063 28.9189 150.482 28.4467C149.919 27.957 149.171 27.7121 148.238 27.7121C147.428 27.7121 146.706 27.922 146.072 28.3418C145.79 28.5259 145.541 28.7394 145.325 28.9822C144.904 29.4572 144.219 29.721 143.653 29.4293C143.07 29.1291 142.869 28.3844 143.272 27.8694C143.943 27.0121 144.68 26.3553 145.861 25.9019C146.636 25.6046 147.445 25.4559 148.29 25.4559C149.382 25.4559 150.341 25.6658 151.169 26.0856C151.996 26.4878 152.639 27.0562 153.097 27.7908C153.572 28.5079 153.81 29.3474 153.81 30.3094V39.9113H151.407V37.2354L151.856 37.3928C151.556 37.9525 151.151 38.4422 150.641 38.8619C150.13 39.2817 149.532 39.614 148.845 39.8589C148.158 40.1037 147.41 40.2262 146.6 40.2262Z" fill="white"/>
<path d="M134.429 39.9118V26.793C134.429 26.1338 134.967 25.5993 135.631 25.5993C136.295 25.5993 136.833 26.1338 136.833 26.793V28.1966L136.568 27.8293C136.903 27.0248 137.34 26.5121 138.027 26.1273C138.714 25.725 139.623 25.6138 140.609 25.6138H141.48V27.812L140.082 27.8293C139.078 27.8293 138.438 28.2741 137.822 28.9037C137.367 29.3687 136.885 30.3535 136.885 31.4904V39.9118H134.429Z" fill="white"/>
<path d="M125.979 40.2262C124.605 40.2262 123.382 39.9026 122.308 39.2555C121.234 38.6083 120.389 37.7251 119.773 36.6057C119.157 35.4689 118.849 34.2009 118.849 32.8017C118.849 31.385 119.148 30.1257 119.746 29.0239C120.363 27.922 121.19 27.0562 122.229 26.4266C123.285 25.7795 124.465 25.4559 125.767 25.4559C126.824 25.4559 127.757 25.6483 128.567 26.0331C129.394 26.4004 130.09 26.9076 130.653 27.5547C131.234 28.1843 131.674 28.9102 131.973 29.7322C132.29 30.5367 132.449 31.3763 132.449 32.2508C132.449 32.4431 132.431 32.6618 132.396 32.9066C132.378 33.134 132.352 33.3526 132.317 33.5625H120.644V31.4637H130.891L129.729 32.4082C129.887 31.4987 129.799 30.6854 129.465 29.9683C129.13 29.2512 128.637 28.6828 127.986 28.2631C127.334 27.8433 126.595 27.6334 125.767 27.6334C124.94 27.6334 124.183 27.8433 123.496 28.2631C122.81 28.6828 122.273 29.2862 121.885 30.0733C121.516 30.8428 121.366 31.761 121.437 32.8279C121.366 33.8598 121.525 34.7693 121.912 35.5563C122.317 36.3259 122.88 36.9293 123.602 37.3666C124.341 37.7863 125.142 37.9962 126.005 37.9962C126.956 37.9962 127.757 37.7776 128.408 37.3403C129.06 36.9031 129.588 36.3434 129.993 35.6613L132.053 36.7107C131.771 37.3578 131.331 37.9525 130.732 38.4947C130.151 39.0194 129.456 39.4391 128.646 39.7539C127.854 40.0687 126.965 40.2262 125.979 40.2262Z" fill="white"/>
<path d="M110.106 40.2259C108.962 40.2259 107.914 39.9723 106.964 39.4651C106.031 38.9579 105.309 38.2408 104.798 37.3139L105.141 36.8941V39.9111H102.738V21.2712C102.738 20.5975 103.288 20.0513 103.966 20.0513C104.644 20.0513 105.194 20.5975 105.194 21.2712V28.8138L104.825 28.2104C105.353 27.3708 106.075 26.7062 106.99 26.2165C107.906 25.7093 108.953 25.4557 110.133 25.4557C111.471 25.4557 112.668 25.7793 113.724 26.4264C114.798 27.0735 115.643 27.9567 116.259 29.0761C116.875 30.178 117.184 31.4372 117.184 32.8539C117.184 34.2356 116.875 35.4862 116.259 36.6055C115.643 37.7249 114.798 38.6081 113.724 39.2552C112.668 39.9024 111.462 40.2259 110.106 40.2259ZM109.921 37.8648C110.819 37.8648 111.62 37.6462 112.324 37.2089C113.029 36.7717 113.574 36.177 113.962 35.4249C114.367 34.6554 114.569 33.7984 114.569 32.8539C114.569 31.8745 114.367 31.0175 113.962 30.2829C113.574 29.5308 113.029 28.9362 112.324 28.4989C111.62 28.0442 110.819 27.8168 109.921 27.8168C109.023 27.8168 108.214 28.0355 107.492 28.4727C106.788 28.9099 106.224 29.5134 105.802 30.2829C105.397 31.035 105.194 31.892 105.194 32.8539C105.194 33.7984 105.397 34.6554 105.802 35.4249C106.224 36.177 106.788 36.7717 107.492 37.2089C108.214 37.6462 109.023 37.8648 109.921 37.8648Z" fill="white"/>
<path d="M93.4543 40.2262C92.0811 40.2262 90.8399 39.9113 89.7307 39.2817C88.6216 38.6346 87.7413 37.7513 87.0899 36.632C86.4385 35.5126 86.1128 34.2446 86.1128 32.8279C86.1128 31.4112 86.4297 30.152 87.0635 29.0501C87.7149 27.9482 88.5952 27.0737 89.7043 26.4266C90.8135 25.7795 92.0635 25.4559 93.4543 25.4559C94.8275 25.4559 96.0687 25.7795 97.1778 26.4266C98.287 27.0562 99.1584 27.922 99.7922 29.0239C100.444 30.1257 100.769 31.3937 100.769 32.8279C100.769 34.2621 100.435 35.5389 99.7658 36.6582C99.0968 37.7601 98.2078 38.6346 97.0986 39.2817C96.0071 39.9113 94.7923 40.2262 93.4543 40.2262ZM93.4543 37.865C94.3346 37.865 95.1268 37.6464 95.831 37.2091C96.5528 36.7719 97.1162 36.1685 97.5211 35.3989C97.9437 34.6294 98.1549 33.7724 98.1549 32.8279C98.1549 31.866 97.9437 31.0177 97.5211 30.2831C97.1162 29.5311 96.5528 28.9364 95.831 28.4992C95.1268 28.0444 94.3346 27.8171 93.4543 27.8171C92.5564 27.8171 91.7466 28.0444 91.0247 28.4992C90.3205 28.9364 89.7572 29.5311 89.3346 30.2831C88.9121 31.0177 88.7008 31.866 88.7008 32.8279C88.7008 33.7724 88.9121 34.6294 89.3346 35.3989C89.7572 36.1685 90.3205 36.7719 91.0247 37.2091C91.7466 37.6464 92.5564 37.865 93.4543 37.865Z" fill="white"/>
<path d="M77.9438 40.2259C76.6939 40.2259 75.5495 39.9986 74.5108 39.5438C73.4721 39.0716 72.5918 38.4332 71.87 37.6287C71.1482 36.8241 70.6288 35.9234 70.3119 34.9265L72.5566 34.0083C73.0319 35.2675 73.7362 36.2382 74.6692 36.9203C75.6199 37.585 76.7291 37.9173 77.9967 37.9173C78.7713 37.9173 79.4491 37.7948 80.0301 37.55C80.6111 37.3051 81.06 36.9641 81.3769 36.5268C81.7114 36.0721 81.8786 35.5474 81.8786 34.9527C81.8786 34.1307 81.641 33.4836 81.1656 33.0113C80.7079 32.5216 80.0301 32.1543 79.1322 31.9095L75.5143 30.8076C74.0883 30.3704 72.9967 29.6795 72.2397 28.735C71.4827 27.7906 71.1041 26.7062 71.1041 25.4819C71.1041 24.415 71.3594 23.4793 71.87 22.6748C72.3981 21.8528 73.12 21.2144 74.0354 20.7596C74.9685 20.2874 76.0249 20.0513 77.2044 20.0513C78.384 20.0513 79.4491 20.2612 80.3998 20.6809C81.3681 21.1007 82.1867 21.6691 82.8557 22.3862C83.2575 22.8064 83.5958 23.2644 83.8706 23.7602C84.1812 24.3207 83.8712 24.9916 83.2767 25.2377C82.6417 25.5006 81.9282 25.1775 81.5576 24.6018C81.1935 24.0361 80.7459 23.5774 80.2149 23.2257C79.3699 22.6486 78.3752 22.36 77.2308 22.36C76.5266 22.36 75.9016 22.4824 75.3559 22.7273C74.8277 22.9546 74.414 23.2957 74.1147 23.7504C73.833 24.1877 73.6921 24.7124 73.6921 25.3245C73.6921 26.0416 73.921 26.68 74.3787 27.2397C74.8365 27.7993 75.5319 28.2278 76.465 28.5252L79.766 29.4959C81.3153 29.9681 82.486 30.6415 83.2783 31.5159C84.0705 32.3904 84.4666 33.4748 84.4666 34.7691C84.4666 35.836 84.185 36.7804 83.6216 37.6024C83.0758 38.4245 82.31 39.0716 81.3241 39.5438C80.3558 39.9986 79.229 40.2259 77.9438 40.2259Z" fill="white"/>
</svg>